<svg width="272" height="293" viewBox="0 0 272 293" fill="none" xmlns="http://www.w3.org/2000/svg">
<path d="M33.6017 209.844L1.56864 136.242C1.3813 135.68 0.669458 133.77 1.56863 132.871C2.4678 131.972 3.81657 132.309 4.37854 133.433C14.3069 153.285 34.3885 193.326 35.2877 194.674C36.1868 196.022 37.1609 195.236 37.5356 194.674C58.7038 151.974 101.826 65.4489 104.974 60.9543C108.121 56.4594 111.53 59.8306 112.841 62.0777C130.637 97.4744 166.454 168.492 167.354 169.391C168.253 170.29 168.852 169.765 169.04 169.391C188.522 128.376 227.711 45.7842 228.61 43.5367C229.509 41.2896 229.149 41.2896 228.61 41.2896H214.561C208.266 41.2896 209.737 37.9312 211.306 36.5201C227.416 25.6578 260.53 3.08378 264.577 0.836386C268.623 -1.41101 269.26 1.39823 269.073 3.08378C270.009 23.8722 271.888 65.8488 271.438 68.5455C270.989 71.2423 268.628 71.9168 267.387 70.5058C264.577 66.9472 258.732 59.4932 257.833 58.145C256.934 56.7964 256.334 57.5831 256.147 58.145C232.731 103.093 184.101 195.011 176.907 205.349C169.714 215.687 163.162 209.382 160.728 205.075C143.493 166.12 108.683 88.7093 107.784 87.3611C106.884 86.0125 106.285 86.7992 106.098 87.3611C84.1802 126.878 39.8959 206.585 38.0976 209.282C36.2992 211.979 34.1637 210.968 33.6017 209.844Z" fill="#2D3945"/>
<path d="M5.38898 251.277H11.0159L18.4634 272.621L17.6772 272.29L23.4697 257.44L25.7039 263.976L17.429 282.631L5.38898 251.277ZM20.1597 251.277H24.9178L33.1927 272.166L32.2411 272.001L39.1094 251.277H44.2812L32.5307 282.549L20.1597 251.277ZM56.5557 251.111H61.3965V281.225H56.5557V251.111ZM102.787 282.3L79.6588 259.881L81.0656 260.46L81.1897 281.225H76.3075V250.077H76.5144L99.3118 272.497L98.1947 272.166L98.1119 251.111H102.911V282.3H102.787ZM133.642 257.233C132.567 256.682 131.422 256.213 130.208 255.827C128.995 255.413 127.836 255.206 126.733 255.206C125.243 255.206 124.057 255.537 123.175 256.199C122.32 256.861 121.892 257.771 121.892 258.929C121.892 259.757 122.195 260.487 122.802 261.122C123.409 261.728 124.181 262.266 125.119 262.735C126.057 263.176 127.05 263.604 128.098 264.017C129.008 264.348 129.905 264.748 130.788 265.217C131.698 265.658 132.511 266.21 133.229 266.871C133.946 267.533 134.511 268.36 134.925 269.353C135.366 270.318 135.587 271.518 135.587 272.952C135.587 274.524 135.187 275.972 134.387 277.295C133.587 278.591 132.443 279.625 130.953 280.398C129.464 281.17 127.643 281.556 125.492 281.556C124.25 281.556 123.023 281.418 121.809 281.142C120.623 280.866 119.492 280.494 118.417 280.025C117.341 279.529 116.348 278.977 115.438 278.371L117.589 274.607C118.251 275.103 119.01 275.558 119.865 275.972C120.72 276.385 121.602 276.716 122.513 276.964C123.423 277.185 124.278 277.295 125.078 277.295C125.933 277.295 126.774 277.157 127.602 276.882C128.457 276.606 129.16 276.151 129.712 275.517C130.291 274.882 130.581 274.041 130.581 272.993C130.581 272.138 130.332 271.408 129.836 270.801C129.339 270.194 128.691 269.67 127.891 269.229C127.119 268.76 126.264 268.347 125.326 267.988C124.388 267.63 123.423 267.23 122.43 266.789C121.464 266.347 120.568 265.81 119.741 265.175C118.913 264.514 118.237 263.714 117.713 262.776C117.189 261.839 116.927 260.68 116.927 259.302C116.927 257.647 117.313 256.213 118.086 255C118.858 253.786 119.92 252.821 121.271 252.104C122.651 251.387 124.237 251.001 126.029 250.946C128.153 250.946 129.96 251.208 131.45 251.732C132.967 252.228 134.304 252.835 135.463 253.552L133.642 257.233ZM157.062 251.111C159.351 251.111 161.309 251.497 162.937 252.27C164.564 253.042 165.805 254.145 166.661 255.579C167.543 257.013 167.985 258.75 167.985 260.791C167.985 261.977 167.791 263.162 167.405 264.348C167.047 265.534 166.467 266.609 165.668 267.575C164.895 268.54 163.847 269.326 162.523 269.932C161.227 270.511 159.627 270.801 157.724 270.801H153.379V281.225H148.538V251.111H157.062ZM157.724 266.127C158.772 266.127 159.654 265.948 160.372 265.589C161.089 265.231 161.64 264.776 162.027 264.224C162.44 263.672 162.73 263.107 162.895 262.528C163.089 261.921 163.185 261.384 163.185 260.915C163.185 260.418 163.102 259.881 162.937 259.302C162.771 258.695 162.495 258.13 162.109 257.606C161.723 257.054 161.185 256.613 160.496 256.282C159.806 255.923 158.923 255.744 157.848 255.744H153.379V266.127H157.724ZM180.452 251.111H200.436V255.744H185.293V263.769H198.781V268.443H185.293V276.592H201.015V281.225H180.452V251.111ZM222.786 251.111C224.441 251.111 225.958 251.332 227.338 251.773C228.717 252.187 229.889 252.807 230.854 253.635C231.82 254.462 232.565 255.482 233.089 256.696C233.64 257.881 233.916 259.246 233.916 260.791C233.916 261.977 233.737 263.162 233.378 264.348C233.02 265.534 232.427 266.609 231.599 267.575C230.799 268.54 229.737 269.312 228.413 269.891C227.089 270.47 225.448 270.76 223.49 270.76H219.145V281.225H214.305V251.111H222.786ZM223.448 266.127C224.524 266.127 225.421 265.961 226.138 265.63C226.855 265.272 227.407 264.831 227.793 264.307C228.206 263.783 228.496 263.231 228.662 262.652C228.855 262.045 228.951 261.48 228.951 260.956C228.951 260.46 228.868 259.922 228.703 259.343C228.537 258.736 228.262 258.171 227.875 257.647C227.489 257.095 226.938 256.64 226.22 256.282C225.531 255.923 224.662 255.744 223.614 255.744H219.145V266.127H223.448ZM228.662 268.981L236.357 281.225H230.772L222.911 269.105L228.662 268.981ZM246.006 251.111H266.155V255.744H258.377V281.225H253.578V255.744H246.006V251.111Z" fill="#2D3945"/>
</svg>
