<svg width="261" height="280" viewBox="0 0 261 280" fill="none" xmlns="http://www.w3.org/2000/svg">
<g clip-path="url(#clip0_101_3693)">
<path d="M32.2044 200.533L1.5034 130.197C1.32385 129.66 0.641607 127.834 1.50339 126.975C2.36517 126.116 3.65786 126.438 4.19646 127.512C13.712 146.484 32.9585 184.748 33.8203 186.037C34.6821 187.325 35.6157 186.574 35.9747 186.037C56.2627 145.231 97.5923 62.545 100.609 58.2499C103.625 53.9544 106.892 57.176 108.149 59.3234C125.205 93.1496 159.533 161.016 160.395 161.875C161.257 162.734 161.831 162.233 162.011 161.875C180.683 122.68 218.242 43.7528 219.104 41.6051C219.966 39.4577 219.62 39.4577 219.104 39.4577H205.639C199.606 39.4577 201.016 36.2482 202.519 34.8998C217.96 24.5194 249.697 2.94696 253.575 0.799276C257.453 -1.3484 258.064 1.3362 257.884 2.94696C258.782 22.813 260.582 62.9272 260.151 65.5043C259.72 68.0814 257.458 68.7259 256.268 67.3775C253.575 63.9769 247.974 56.8535 247.112 55.5652C246.25 54.2764 245.675 55.0282 245.496 55.5652C223.054 98.5186 176.445 186.359 169.551 196.238C162.657 206.117 156.378 200.092 154.044 195.976C137.526 158.749 104.164 84.7734 103.302 83.485C102.44 82.1963 101.865 82.9481 101.686 83.485C80.6798 121.248 38.2369 197.419 36.5134 199.996C34.7898 202.574 32.7431 201.607 32.2044 200.533Z" fill="white"/>
<path d="M5.16492 240.128H10.5579L17.6956 260.525L16.9422 260.209L22.4938 246.018L24.6351 252.264L16.7043 270.091L5.16492 240.128ZM19.3215 240.128H23.8817L31.8125 260.09L30.9005 259.932L37.4832 240.128H42.4399L31.1781 270.012L19.3215 240.128ZM54.204 239.97H58.8436V268.747H54.204V239.97ZM98.5132 269.775L76.3465 248.35L77.6947 248.904L77.8137 268.747H73.1345V238.982H73.3328L95.1822 260.407L94.1116 260.09L94.0323 239.97H98.6321V269.775H98.5132ZM128.085 245.82C127.054 245.293 125.957 244.845 124.794 244.476C123.631 244.081 122.52 243.883 121.463 243.883C120.035 243.883 118.899 244.2 118.053 244.832C117.233 245.465 116.824 246.334 116.824 247.441C116.824 248.232 117.114 248.93 117.696 249.536C118.277 250.116 119.018 250.63 119.917 251.078C120.815 251.499 121.767 251.908 122.772 252.303C123.644 252.619 124.503 253.001 125.349 253.449C126.222 253.871 127.001 254.398 127.689 255.031C128.376 255.663 128.918 256.454 129.315 257.402C129.738 258.325 129.949 259.471 129.949 260.841C129.949 262.344 129.566 263.727 128.799 264.992C128.032 266.231 126.935 267.219 125.508 267.957C124.08 268.695 122.335 269.064 120.273 269.064C119.084 269.064 117.907 268.932 116.744 268.668C115.607 268.405 114.524 268.049 113.493 267.601C112.462 267.127 111.51 266.6 110.637 266.02L112.699 262.423C113.334 262.897 114.061 263.332 114.88 263.727C115.7 264.122 116.546 264.439 117.418 264.676C118.291 264.887 119.11 264.992 119.877 264.992C120.696 264.992 121.503 264.86 122.296 264.597C123.115 264.333 123.789 263.898 124.318 263.292C124.873 262.686 125.151 261.882 125.151 260.881C125.151 260.064 124.913 259.366 124.437 258.786C123.961 258.206 123.34 257.705 122.573 257.284C121.833 256.836 121.014 256.441 120.115 256.098C119.216 255.755 118.291 255.373 117.339 254.952C116.414 254.53 115.555 254.016 114.761 253.41C113.968 252.777 113.321 252.013 112.818 251.117C112.316 250.221 112.065 249.114 112.065 247.797C112.065 246.216 112.435 244.845 113.175 243.686C113.916 242.526 114.933 241.604 116.229 240.919C117.55 240.233 119.071 239.865 120.789 239.812C122.825 239.812 124.556 240.062 125.984 240.563C127.438 241.037 128.72 241.617 129.83 242.302L128.085 245.82ZM150.531 239.97C152.725 239.97 154.602 240.339 156.162 241.077C157.721 241.815 158.911 242.869 159.73 244.239C160.576 245.609 160.999 247.27 160.999 249.22C160.999 250.353 160.814 251.486 160.444 252.619C160.101 253.753 159.545 254.78 158.779 255.703C158.039 256.625 157.034 257.376 155.765 257.956C154.523 258.509 152.989 258.786 151.165 258.786H147.001V268.747H142.362V239.97H150.531ZM151.165 254.319C152.17 254.319 153.016 254.148 153.703 253.805C154.39 253.463 154.919 253.028 155.289 252.501C155.686 251.974 155.963 251.433 156.122 250.88C156.307 250.3 156.399 249.786 156.399 249.338C156.399 248.864 156.32 248.35 156.162 247.797C156.003 247.217 155.739 246.677 155.368 246.176C154.998 245.649 154.483 245.227 153.822 244.911C153.161 244.569 152.315 244.397 151.284 244.397H147.001V254.319H151.165ZM172.948 239.97H192.101V244.397H177.588V252.066H190.515V256.533H177.588V264.32H192.656V268.747H172.948V239.97ZM213.522 239.97C215.109 239.97 216.563 240.181 217.884 240.602C219.206 240.998 220.33 241.591 221.255 242.381C222.18 243.172 222.894 244.147 223.396 245.306C223.925 246.44 224.189 247.744 224.189 249.22C224.189 250.353 224.018 251.486 223.674 252.619C223.33 253.753 222.762 254.78 221.969 255.703C221.202 256.625 220.184 257.363 218.915 257.916C217.647 258.47 216.074 258.746 214.197 258.746H210.033V268.747H205.393V239.97H213.522ZM214.157 254.319C215.188 254.319 216.047 254.161 216.734 253.845C217.422 253.502 217.951 253.081 218.321 252.58C218.717 252.079 218.995 251.552 219.153 250.999C219.338 250.419 219.431 249.879 219.431 249.378C219.431 248.904 219.352 248.39 219.193 247.836C219.034 247.257 218.77 246.716 218.4 246.216C218.03 245.689 217.501 245.254 216.814 244.911C216.153 244.569 215.32 244.397 214.316 244.397H210.033V254.319H214.157ZM219.153 257.047L226.529 268.747H221.176L213.641 257.165L219.153 257.047ZM235.777 239.97H255.088V244.397H247.633V268.747H243.033V244.397H235.777V239.97Z" fill="white"/>
</g>
<defs>
<clipPath id="clip0_101_3693">
<rect width="260.69" height="280" fill="white"/>
</clipPath>
</defs>
</svg>
