<svg width="100" height="102" viewBox="0 0 100 102" fill="none" xmlns="http://www.w3.org/2000/svg">
<path d="M83.0244 28.1316C82.6016 27.0933 81.7925 26.2682 80.7744 25.837C80.2735 25.6193 79.7355 25.5038 79.1911 25.4971H58.3577C57.2527 25.4971 56.1929 25.9448 55.4115 26.7416C54.63 27.5385 54.1911 28.6193 54.1911 29.7462C54.1911 30.8732 54.63 31.954 55.4115 32.7509C56.1929 33.5477 57.2527 33.9954 58.3577 33.9954H69.1494L45.8577 57.7483L32.1494 43.726C31.7621 43.3278 31.3012 43.0116 30.7935 42.7959C30.2857 42.5802 29.7411 42.4691 29.1911 42.4691C28.641 42.4691 28.0964 42.5802 27.5887 42.7959C27.0809 43.0116 26.6201 43.3278 26.2327 43.726L1.23274 69.2211C0.842202 69.6161 0.532226 70.0861 0.32069 70.6039C0.109153 71.1217 0.000244141 71.6771 0.000244141 72.238C0.000244141 72.7989 0.109153 73.3543 0.32069 73.8721C0.532226 74.3899 0.842202 74.8599 1.23274 75.2549C1.62008 75.6532 2.08092 75.9693 2.58867 76.185C3.09641 76.4007 3.64102 76.5118 4.19107 76.5118C4.74112 76.5118 5.28573 76.4007 5.79347 76.185C6.30122 75.9693 6.76206 75.6532 7.1494 75.2549L29.1911 52.7343L42.8994 66.7566C43.2867 67.1548 43.7476 67.4709 44.2553 67.6867C44.7631 67.9024 45.3077 68.0135 45.8577 68.0135C46.4078 68.0135 46.9524 67.9024 47.4601 67.6867C47.9679 67.4709 48.4287 67.1548 48.8161 66.7566L75.0244 39.9868V50.9921C75.0244 52.1191 75.4634 53.1999 76.2448 53.9967C77.0262 54.7936 78.086 55.2413 79.1911 55.2413C80.2961 55.2413 81.3559 54.7936 82.1373 53.9967C82.9187 53.1999 83.3577 52.1191 83.3577 50.9921V29.7462C83.3511 29.191 83.2379 28.6424 83.0244 28.1316Z" fill="#28B882"/>
</svg>
