<svg width="100" height="100" viewBox="0 0 100 100" fill="none" xmlns="http://www.w3.org/2000/svg">
<g clip-path="url(#clip0_111_4188)">
<path d="M90.6369 12.0245C78.1732 -0.439172 57.8925 -0.439172 45.4284 12.0245L6.67608 50.7763C-2.22591 59.6794 -2.22533 74.1658 6.67764 83.0684C11.1294 87.5202 16.9751 89.7459 22.8232 89.7454C28.6697 89.7448 34.5182 87.5196 38.9694 83.0684L74.491 47.5464C79.8332 42.2053 79.8338 33.5135 74.4916 28.1705C69.1494 22.8289 60.4571 22.8291 55.1161 28.1715L31.8865 51.4003C30.1031 53.1835 30.1031 56.0751 31.8861 57.8587C33.6699 59.6421 36.561 59.6421 38.3448 57.8587L61.5747 34.6293C63.3552 32.8487 66.2527 32.8487 68.0331 34.6287C69.8136 36.4098 69.8136 39.3067 68.0326 41.0874L32.5113 76.61C27.1691 81.9514 18.4777 81.9522 13.1359 76.6103C7.79424 71.2683 7.79366 62.5765 13.1347 57.2345L51.8868 18.483C60.7898 9.58079 75.2759 9.5804 84.1789 18.4834C88.4918 22.7959 90.8672 28.5301 90.8668 34.6291C90.8668 40.7284 88.4918 46.4624 84.1783 50.7753L45.4274 89.5276C43.644 91.311 43.644 94.2024 45.4278 95.986C46.3196 96.8778 47.4883 97.3235 48.6569 97.3235C49.8255 97.3235 50.9944 96.8774 51.8862 95.986L90.6366 57.2341C96.6749 51.1964 100 43.1686 100 34.6295C100.001 26.09 96.6753 18.0623 90.6369 12.0245Z" fill="black"/>
</g>
<defs>
<clipPath id="clip0_111_4188">
<rect width="100" height="100" fill="white"/>
</clipPath>
</defs>
</svg>
