<svg width="100" height="100" viewBox="0 0 100 100" fill="none" xmlns="http://www.w3.org/2000/svg">
<path fill-rule="evenodd" clip-rule="evenodd" d="M34.5539 52.9455C33.7728 52.1641 33.334 51.1045 33.334 49.9996C33.334 48.8948 33.7728 47.8352 34.5539 47.0538L58.1248 23.483C58.5091 23.085 58.9689 22.7676 59.4772 22.5492C59.9856 22.3308 60.5323 22.2159 61.0856 22.2111C61.6388 22.2063 62.1875 22.3117 62.6996 22.5212C63.2116 22.7307 63.6769 23.0401 64.0681 23.4313C64.4593 23.8225 64.7687 24.2878 64.9782 24.7998C65.1877 25.3119 65.2931 25.8606 65.2883 26.4138C65.2835 26.9671 65.1686 27.5138 64.9502 28.0222C64.7318 28.5305 64.4144 28.9903 64.0164 29.3746L43.3914 49.9996L64.0164 70.6246C64.7754 71.4105 65.1954 72.463 65.1859 73.5555C65.1764 74.648 64.7382 75.693 63.9657 76.4655C63.1931 77.2381 62.1481 77.6763 61.0556 77.6858C59.9631 77.6953 58.9106 77.2753 58.1248 76.5163L34.5539 52.9455Z" fill="#2D3945"/>
</svg>
