<svg width="100" height="100" viewBox="0 0 100 100" fill="none" xmlns="http://www.w3.org/2000/svg">
<rect width="100" height="100" rx="50" fill="#D06060"/>
<path d="M54.9412 49.9084L69.4005 35.6867C70.0337 35.0625 70.3895 34.2158 70.3895 33.333C70.3895 32.4502 70.0337 31.6036 69.4005 30.9793C68.7673 30.3551 67.9085 30.0044 67.0131 30.0044C66.1176 30.0044 65.2588 30.3551 64.6256 30.9793L50.1999 45.2341L35.7741 30.9793C35.1409 30.3551 34.2821 30.0044 33.3867 30.0044C32.4912 30.0044 31.6324 30.3551 30.9992 30.9793C30.366 31.6036 30.0103 32.4502 30.0103 33.333C30.0103 34.2158 30.366 35.0625 30.9992 35.6867L45.4585 49.9084L30.9992 64.1301C30.684 64.4383 30.4338 64.8049 30.2631 65.2089C30.0924 65.6128 30.0045 66.0461 30.0045 66.4838C30.0045 66.9214 30.0924 67.3547 30.2631 67.7587C30.4338 68.1626 30.684 68.5293 30.9992 68.8375C31.3118 69.1482 31.6837 69.3948 32.0935 69.5631C32.5032 69.7314 32.9427 69.8181 33.3867 69.8181C33.8306 69.8181 34.2701 69.7314 34.6798 69.5631C35.0896 69.3948 35.4615 69.1482 35.7741 68.8375L50.1999 54.5827L64.6256 68.8375C64.9382 69.1482 65.3101 69.3948 65.7199 69.5631C66.1296 69.7314 66.5691 69.8181 67.0131 69.8181C67.457 69.8181 67.8965 69.7314 68.3062 69.5631C68.716 69.3948 69.0879 69.1482 69.4005 68.8375C69.7157 68.5293 69.9659 68.1626 70.1366 67.7587C70.3073 67.3547 70.3952 66.9214 70.3952 66.4838C70.3952 66.0461 70.3073 65.6128 70.1366 65.2089C69.9659 64.8049 69.7157 64.4383 69.4005 64.1301L54.9412 49.9084Z" fill="white"/>
</svg>
