<svg width="100" height="100" viewBox="0 0 100 100" fill="none" xmlns="http://www.w3.org/2000/svg">
<path d="M62.5 15.625H18.75C13.5723 15.625 9.375 19.8223 9.375 25V87.5C9.375 92.6777 13.5723 96.875 18.75 96.875H62.5C67.6777 96.875 71.875 92.6777 71.875 87.5V25C71.875 19.8223 67.6777 15.625 62.5 15.625Z" fill="#4A6375"/>
<path d="M90.625 12.5V75C90.6176 77.4841 89.6275 79.8644 87.8709 81.6209C86.1144 83.3775 83.7341 84.3676 81.25 84.375H78.125V25C78.125 20.856 76.4788 16.8817 73.5485 13.9515C70.6183 11.0212 66.644 9.375 62.5 9.375H28.6875C29.3322 7.55141 30.5252 5.97187 32.1029 4.85293C33.6806 3.734 35.5658 3.13044 37.5 3.125H81.25C83.7341 3.13242 86.1144 4.12252 87.8709 5.87907C89.6275 7.63562 90.6176 10.0159 90.625 12.5Z" fill="#4A6375"/>
</svg>
