<svg width="100" height="98" viewBox="0 0 100 98" fill="none" xmlns="http://www.w3.org/2000/svg">
<path d="M41.0714 20.8332H58.9285C58.9285 18.531 57.9878 16.3231 56.3134 14.6951C54.639 13.0672 52.368 12.1527 49.9999 12.1527C47.6319 12.1527 45.3609 13.0672 43.6865 14.6951C42.0121 16.3231 41.0714 18.531 41.0714 20.8332ZM35.7142 20.8332C35.7142 17.1497 37.2193 13.617 39.8984 11.0123C42.5775 8.40763 46.2111 6.94434 49.9999 6.94434C53.7888 6.94434 57.4224 8.40763 60.1015 11.0123C62.7806 13.617 64.2857 17.1497 64.2857 20.8332H86.6071C87.3175 20.8332 87.9988 21.1076 88.5011 21.596C89.0035 22.0843 89.2857 22.7467 89.2857 23.4374C89.2857 24.1281 89.0035 24.7904 88.5011 25.2788C87.9988 25.7672 87.3175 26.0416 86.6071 26.0416H81.9285L77.5821 76.7464C77.2659 80.4351 75.5354 83.8735 72.7339 86.3798C69.9323 88.8862 66.2643 90.2774 62.4571 90.2777H37.5428C33.7356 90.2774 30.0676 88.8862 27.266 86.3798C24.4645 83.8735 22.734 80.4351 22.4178 76.7464L18.0714 26.0416H13.3928C12.6824 26.0416 12.0011 25.7672 11.4988 25.2788C10.9964 24.7904 10.7142 24.1281 10.7142 23.4374C10.7142 22.7467 10.9964 22.0843 11.4988 21.596C12.0011 21.1076 12.6824 20.8332 13.3928 20.8332H35.7142ZM27.7571 76.3124C27.9613 78.6992 29.0807 80.9243 30.8933 82.5463C32.7059 84.1683 35.0793 85.0689 37.5428 85.0693H62.4571C64.9206 85.0689 67.294 84.1683 69.1066 82.5463C70.9191 80.9243 72.0386 78.6992 72.2428 76.3124L76.5571 26.0416H23.4464L27.7571 76.3124ZM41.9642 38.1943C42.6746 38.1943 43.3559 38.4687 43.8583 38.9571C44.3606 39.4455 44.6428 40.1078 44.6428 40.7985V70.3124C44.6428 71.0031 44.3606 71.6654 43.8583 72.1538C43.3559 72.6422 42.6746 72.9166 41.9642 72.9166C41.2538 72.9166 40.5725 72.6422 40.0702 72.1538C39.5679 71.6654 39.2857 71.0031 39.2857 70.3124V40.7985C39.2857 40.1078 39.5679 39.4455 40.0702 38.9571C40.5725 38.4687 41.2538 38.1943 41.9642 38.1943ZM60.7142 40.7985C60.7142 40.1078 60.432 39.4455 59.9297 38.9571C59.4274 38.4687 58.7461 38.1943 58.0357 38.1943C57.3253 38.1943 56.644 38.4687 56.1416 38.9571C55.6393 39.4455 55.3571 40.1078 55.3571 40.7985V70.3124C55.3571 71.0031 55.6393 71.6654 56.1416 72.1538C56.644 72.6422 57.3253 72.9166 58.0357 72.9166C58.7461 72.9166 59.4274 72.6422 59.9297 72.1538C60.432 71.6654 60.7142 71.0031 60.7142 70.3124V40.7985Z" fill="#D06060"/>
</svg>
