<svg width="100" height="102" viewBox="0 0 100 102" fill="none" xmlns="http://www.w3.org/2000/svg">
<g clip-path="url(#clip0_103_4118)">
<path fill-rule="evenodd" clip-rule="evenodd" d="M52.9458 66.3676C52.1645 67.1597 51.1049 67.6047 50 67.6047C48.8952 67.6047 47.8355 67.1597 47.0542 66.3676L23.4833 42.4648C23.0854 42.075 22.768 41.6088 22.5496 41.0933C22.3312 40.5778 22.2163 40.0233 22.2115 39.4623C22.2067 38.9012 22.3121 38.3448 22.5216 37.8256C22.7311 37.3063 23.0405 36.8345 23.4317 36.4378C23.8229 36.041 24.2881 35.7273 24.8002 35.5148C25.3123 35.3024 25.8609 35.1955 26.4142 35.2004C26.9674 35.2052 27.5142 35.3218 28.0225 35.5432C28.5309 35.7647 28.9906 36.0866 29.375 36.4901L50 57.4056L70.625 36.4901C71.4109 35.7205 72.4634 35.2946 73.5558 35.3042C74.6483 35.3138 75.6934 35.7582 76.4659 36.5416C77.2385 37.325 77.6767 38.3848 77.6862 39.4927C77.6956 40.6005 77.2757 41.6679 76.5167 42.4648L52.9458 66.3676Z" fill="#4A6375"/>
</g>
<defs>
<clipPath id="clip0_103_4118">
<rect width="100" height="101.408" fill="white"/>
</clipPath>
</defs>
</svg>
