<svg width="100" height="97" viewBox="0 0 100 97" fill="none" xmlns="http://www.w3.org/2000/svg">
<path d="M34.9998 21.0806C23.4165 21.0806 13.5415 29.4332 13.5415 40.2756C13.5415 47.7569 17.1748 54.0535 21.9915 59.2699C26.7957 64.4702 32.9915 68.8353 38.5873 72.4896L48.2498 78.7942C48.7666 79.1309 49.3761 79.3108 49.9998 79.3108C50.6236 79.3108 51.2331 79.1309 51.7498 78.7942L61.4123 72.4896C67.0123 68.8353 73.204 64.4702 78.004 59.2699C82.8248 54.0535 86.4582 47.7569 86.4582 40.2756C86.4582 29.4332 76.5832 21.0806 64.9998 21.0806C59.0248 21.0806 53.7707 23.7791 49.9998 27.2728C46.229 23.7791 40.9707 21.0806 34.9998 21.0806Z" fill="#EA4343"/>
</svg>
