<svg width="100" height="100" viewBox="0 0 100 100" fill="none" xmlns="http://www.w3.org/2000/svg">
<path d="M95.8334 79.1667C95.8334 80.2718 95.3944 81.3316 94.613 82.113C93.8316 82.8944 92.7718 83.3334 91.6667 83.3334H41.6667C40.5617 83.3334 39.5019 82.8944 38.7205 82.113C37.9391 81.3316 37.5001 80.2718 37.5001 79.1667C37.5001 72.5363 40.134 66.1775 44.8224 61.4891C49.5108 56.8007 55.8697 54.1667 62.5001 54.1667H70.8334C77.4638 54.1667 83.8227 56.8007 88.5111 61.4891C93.1995 66.1775 95.8334 72.5363 95.8334 79.1667ZM66.6667 16.6667C63.3704 16.6667 60.1481 17.6442 57.4072 19.4756C54.6664 21.3069 52.5302 23.9099 51.2687 26.9554C50.0073 30.0008 49.6772 33.3519 50.3203 36.5849C50.9634 39.8179 52.5508 42.7877 54.8816 45.1185C57.2125 47.4494 60.1822 49.0367 63.4152 49.6798C66.6483 50.3229 69.9994 49.9929 73.0448 48.7314C76.0902 47.4699 78.6932 45.3337 80.5246 42.5929C82.3559 39.8521 83.3334 36.6298 83.3334 33.3334C83.3334 28.9131 81.5775 24.6739 78.4518 21.5483C75.3262 18.4227 71.087 16.6667 66.6667 16.6667ZM29.1667 16.6667C25.8704 16.6667 22.6481 17.6442 19.9072 19.4756C17.1664 21.3069 15.0302 23.9099 13.7688 26.9554C12.5073 30.0008 12.1772 33.3519 12.8203 36.5849C13.4634 39.8179 15.0508 42.7877 17.3816 45.1185C19.7125 47.4494 22.6822 49.0367 25.9152 49.6798C29.1483 50.3229 32.4994 49.9929 35.5448 48.7314C38.5902 47.4699 41.1932 45.3337 43.0246 42.5929C44.8559 39.8521 45.8334 36.6298 45.8334 33.3334C45.8334 28.9131 44.0775 24.6739 40.9519 21.5483C37.8263 18.4227 33.587 16.6667 29.1667 16.6667ZM29.1667 79.1667C29.1605 74.7901 30.0228 70.4558 31.7036 66.4147C33.3844 62.3737 35.8503 58.7064 38.9584 55.6251C36.4148 54.6647 33.7189 54.1707 31.0001 54.1667H27.3334C21.1926 54.1778 15.3065 56.6221 10.9643 60.9643C6.62207 65.3065 4.17776 71.1926 4.16675 77.3334V79.1667C4.16675 80.2718 4.60573 81.3316 5.38714 82.113C6.16854 82.8944 7.22835 83.3334 8.33341 83.3334H29.9167C29.4316 81.9973 29.178 80.5882 29.1667 79.1667Z" fill="#4A6375"/>
</svg>
