<svg width="100" height="100" viewBox="0 0 100 100" fill="none" xmlns="http://www.w3.org/2000/svg">
<path d="M13.6458 63.7334C10.1041 59.1334 8.33325 56.8293 8.33325 50.0001C8.33325 43.1668 10.1041 40.8709 13.6458 36.2668C20.7166 27.0834 32.5749 16.6667 49.9999 16.6667C67.4249 16.6667 79.2833 27.0834 86.3541 36.2668C89.8958 40.8751 91.6666 43.1709 91.6666 50.0001C91.6666 56.8334 89.8958 59.1292 86.3541 63.7334C79.2833 72.9168 67.4249 83.3334 49.9999 83.3334C32.5749 83.3334 20.7166 72.9168 13.6458 63.7334Z" stroke="#9EAEBE" stroke-width="1.5"/>
<path d="M62.5 50C62.5 53.3152 61.183 56.4946 58.8388 58.8388C56.4946 61.183 53.3152 62.5 50 62.5C46.6848 62.5 43.5054 61.183 41.1612 58.8388C38.817 56.4946 37.5 53.3152 37.5 50C37.5 46.6848 38.817 43.5054 41.1612 41.1612C43.5054 38.817 46.6848 37.5 50 37.5C53.3152 37.5 56.4946 38.817 58.8388 41.1612C61.183 43.5054 62.5 46.6848 62.5 50Z" stroke="#9EAEBE" stroke-width="1.5"/>
</svg>
