<svg width="100" height="99" viewBox="0 0 100 99" fill="none" xmlns="http://www.w3.org/2000/svg">
<path d="M93.75 49.3631C93.7526 50.4106 93.4805 51.441 92.9603 52.3539C92.4401 53.2669 91.6894 54.0314 90.7812 54.5732L34.5 88.5643C33.5511 89.1379 32.4643 89.4511 31.3519 89.4714C30.2394 89.4918 29.1416 89.2185 28.1719 88.68C27.2114 88.1498 26.4112 87.3766 25.8538 86.4398C25.2963 85.5031 25.0016 84.4367 25 83.3503V15.3758C25.0016 14.2894 25.2963 13.223 25.8538 12.2863C26.4112 11.3496 27.2114 10.5764 28.1719 10.0462C29.1416 9.5076 30.2394 9.23438 31.3519 9.25472C32.4643 9.27506 33.5511 9.58822 34.5 10.1619L90.7812 44.1529C91.6894 44.6947 92.4401 45.4592 92.9603 46.3722C93.4805 47.2852 93.7526 48.3155 93.75 49.3631Z" fill="white"/>
</svg>
