<svg width="100" height="99" viewBox="0 0 100 99" fill="none" xmlns="http://www.w3.org/2000/svg">
<path d="M50.0001 48.2134C61.3289 48.2134 70.5131 39.2504 70.5131 28.194C70.5131 17.1376 61.3289 8.17456 50.0001 8.17456C38.6712 8.17456 29.4873 17.1376 29.4873 28.194C29.4873 39.2504 38.6712 48.2134 50.0001 48.2134Z" fill="#778FA7"/>
<path d="M60.6838 56.5552H39.3163C26.9232 56.5552 16.6667 66.5654 16.6667 78.6601C16.6667 81.5797 17.9488 84.0823 20.5129 85.3335C24.359 87.4188 32.9061 89.9206 50.0001 89.9206C67.0942 89.9206 75.6409 87.4188 79.4872 85.3335C81.6238 84.0823 83.3334 81.5797 83.3334 78.6601C83.3334 66.1481 73.0772 56.5552 60.6838 56.5552Z" fill="#778FA7"/>
</svg>
