<svg width="100" height="100" viewBox="0 0 100 100" fill="none" xmlns="http://www.w3.org/2000/svg">
<path d="M100 50C100 77.6142 77.6142 100 50 100C22.3858 100 0 77.6142 0 50C0 22.3858 22.3858 0 50 0C77.6142 0 100 22.3858 100 50ZM7.05429 50C7.05429 73.7183 26.2817 92.9457 50 92.9457C73.7183 92.9457 92.9457 73.7183 92.9457 50C92.9457 26.2817 73.7183 7.05429 50 7.05429C26.2817 7.05429 7.05429 26.2817 7.05429 50Z" fill="#7587E3"/>
<path d="M54.7619 57.1431C55.4365 57.1431 56.0222 56.8947 56.519 56.3978C57.0158 55.901 57.2635 55.3161 57.2619 54.6431C57.2619 53.9685 57.0135 53.3835 56.5166 52.8883C56.0198 52.3931 55.4349 52.1446 54.7619 52.1431C54.0873 52.1431 53.5015 52.3915 53.0047 52.8883C52.5079 53.3851 52.2603 53.97 52.2619 54.6431C52.2619 55.3177 52.5103 55.9034 53.0071 56.4002C53.5039 56.897 54.0888 57.1446 54.7619 57.1431ZM54.7619 49.524C55.1984 49.524 55.6055 49.3653 55.9833 49.0478C56.3611 48.7304 56.5889 48.3137 56.6666 47.7978C56.746 47.3216 56.9142 46.8851 57.1714 46.4883C57.4285 46.0915 57.8952 45.5558 58.5714 44.8812C59.7619 43.6907 60.5555 42.728 60.9523 41.9931C61.3492 41.2581 61.5476 40.3954 61.5476 39.405C61.5476 37.6193 60.9222 36.1605 59.6714 35.0288C58.4206 33.897 56.7841 33.3319 54.7619 33.3335C53.4523 33.3335 52.2619 33.6312 51.1904 34.2264C50.119 34.8216 49.2658 35.6748 48.6309 36.7859C48.3928 37.1827 48.373 37.5994 48.5714 38.0359C48.7698 38.4724 49.1071 38.7899 49.5833 38.9883C50.0198 39.1867 50.4468 39.2066 50.8642 39.0478C51.2817 38.8891 51.6285 38.6113 51.9047 38.2145C52.2619 37.6986 52.6785 37.3121 53.1547 37.055C53.6309 36.7978 54.1666 36.6685 54.7619 36.6669C55.7142 36.6669 56.4881 36.9351 57.0833 37.4716C57.6785 38.0081 57.9762 38.7319 57.9762 39.6431C57.9762 40.1986 57.8174 40.7248 57.5 41.2216C57.1825 41.7185 56.6269 42.3431 55.8333 43.0954C54.6825 44.0875 53.9484 44.8518 53.6309 45.3883C53.3135 45.9248 53.115 46.7081 53.0357 47.7383C52.996 48.2145 53.1452 48.6312 53.4833 48.9883C53.8214 49.3454 54.2476 49.524 54.7619 49.524ZM40.4761 64.2859C39.1666 64.2859 38.0452 63.8193 37.1119 62.8859C36.1785 61.9526 35.7127 60.832 35.7142 59.524V30.9526C35.7142 29.6431 36.1809 28.5216 37.1142 27.5883C38.0476 26.655 39.1682 26.1891 40.4761 26.1907H69.0476C70.3571 26.1907 71.4785 26.6573 72.4119 27.5907C73.3452 28.524 73.8111 29.6446 73.8095 30.9526V59.524C73.8095 60.8335 73.3428 61.955 72.4095 62.8883C71.4762 63.8216 70.3555 64.2875 69.0476 64.2859H40.4761ZM30.9523 73.8097C29.6428 73.8097 28.5214 73.3431 27.5881 72.4097C26.6547 71.4764 26.1888 70.3558 26.1904 69.0478V38.0954C26.1904 37.4208 26.419 36.855 26.8761 36.3978C27.3333 35.9407 27.8984 35.7129 28.5714 35.7145C29.246 35.7145 29.8119 35.9431 30.269 36.4002C30.7261 36.8573 30.9539 37.4224 30.9523 38.0954V69.0478H61.9047C62.5793 69.0478 63.1452 69.2764 63.6023 69.7335C64.0595 70.1907 64.2873 70.7558 64.2857 71.4288C64.2857 72.1034 64.0571 72.6693 63.6 73.1264C63.1428 73.5835 62.5777 73.8113 61.9047 73.8097H30.9523Z" fill="#7587E3"/>
</svg>
