<svg width="100" height="101" viewBox="0 0 100 101" fill="none" xmlns="http://www.w3.org/2000/svg">
<path fill-rule="evenodd" clip-rule="evenodd" d="M52.9455 34.7447C52.1641 33.9636 51.1045 33.5248 49.9996 33.5248C48.8948 33.5248 47.8352 33.9636 47.0538 34.7447L23.483 58.3155C23.085 58.6999 22.7676 59.1597 22.5492 59.668C22.3308 60.1764 22.2159 60.7231 22.2111 61.2764C22.2063 61.8296 22.3117 62.3783 22.5212 62.8904C22.7307 63.4024 23.0401 63.8676 23.4313 64.2589C23.8225 64.6501 24.2878 64.9595 24.7998 65.169C25.3119 65.3785 25.8606 65.4839 26.4138 65.4791C26.9671 65.4743 27.5138 65.3593 28.0222 65.141C28.5305 64.9226 28.9903 64.6052 29.3746 64.2072L49.9996 43.5822L70.6246 64.2072C71.4105 64.9662 72.463 65.3862 73.5555 65.3767C74.648 65.3672 75.693 64.929 76.4655 64.1565C77.2381 63.3839 77.6763 62.3389 77.6858 61.2464C77.6953 60.1539 77.2753 59.1014 76.5163 58.3155L52.9455 34.7447Z" fill="#28B882"/>
</svg>
