<svg width="100" height="100" viewBox="0 0 100 100" fill="none" xmlns="http://www.w3.org/2000/svg">
<path d="M50 6.25C61.6032 6.25 72.7312 10.8594 80.9359 19.0641C89.1406 27.2688 93.75 38.3968 93.75 50C93.75 61.6032 89.1406 72.7312 80.9359 80.9359C72.7312 89.1406 61.6032 93.75 50 93.75C38.3968 93.75 27.2688 89.1406 19.0641 80.9359C10.8594 72.7312 6.25 61.6032 6.25 50C6.25 38.3968 10.8594 27.2688 19.0641 19.0641C27.2688 10.8594 38.3968 6.25 50 6.25ZM50 87.5C59.9456 87.5 69.4839 83.5491 76.5165 76.5165C83.5491 69.4839 87.5 59.9456 87.5 50C87.5 40.0544 83.5491 30.5161 76.5165 23.4835C69.4839 16.4509 59.9456 12.5 50 12.5C40.0544 12.5 30.5161 16.4509 23.4835 23.4835C16.4509 30.5161 12.5 40.0544 12.5 50C12.5 59.9456 16.4509 69.4839 23.4835 76.5165C30.5161 83.5491 40.0544 87.5 50 87.5ZM45.3125 63.3187L65.2937 50L45.3125 36.6812V63.3187ZM46.35 29.8562L70.7125 46.1C71.3545 46.5281 71.8809 47.108 72.2449 47.7884C72.609 48.4687 72.7995 49.2284 72.7995 50C72.7995 50.7716 72.609 51.5313 72.2449 52.2116C71.8809 52.892 71.3545 53.4719 70.7125 53.9L46.35 70.1437C45.6441 70.6143 44.8237 70.8845 43.9763 70.9254C43.1289 70.9664 42.2862 70.7766 41.5382 70.3763C40.7902 69.976 40.1649 69.3802 39.7289 68.6524C39.2929 67.9246 39.0626 67.0921 39.0625 66.2437V33.75C39.0626 32.9016 39.2929 32.0691 39.7289 31.3414C40.1649 30.6136 40.7902 30.0178 41.5382 29.6175C42.2862 29.2171 43.1289 29.0274 43.9763 29.0683C44.8237 29.1093 45.6441 29.3794 46.35 29.85V29.8562Z" fill="#7587E3"/>
</svg> 