<svg width="100" height="100" viewBox="0 0 100 100" fill="none" xmlns="http://www.w3.org/2000/svg">
<path d="M74.4375 96H25.5625C13.6729 96 4 86.3257 4 74.4344V44.1938C4 37.5101 7.17238 31.0999 12.4859 27.0464L36.9234 8.40491C44.6229 2.5317 55.3771 2.5317 63.0766 8.40491L70.8438 14.3247V9.73749C71.0335 4.96861 77.8431 4.97221 78.0312 9.73749V21.5826C78.0312 22.949 77.2566 24.1971 76.0322 24.8036C74.8078 25.41 73.3457 25.2694 72.2592 24.4415L58.7188 14.1218C53.5848 10.2055 46.4149 10.2055 41.2821 14.1209L16.8446 32.7624C13.3024 35.4644 11.1875 39.7378 11.1875 44.1938V74.4344C11.1875 82.3619 17.6361 88.8115 25.5625 88.8115H74.4375C82.3639 88.8115 88.8125 82.3619 88.8125 74.4344V44.1938C88.8125 39.6832 86.7215 35.3952 83.219 32.7232C81.6408 31.5193 81.3373 29.2639 82.541 27.6857C83.7448 26.1072 86 25.8037 87.5779 27.0076C92.8515 31.0303 96 37.4551 96 44.1938V74.4344C96 86.3257 86.3271 96 74.4375 96ZM42.8125 45.5005C40.3316 45.5005 38.3203 47.512 38.3203 49.9933C38.5577 55.9544 47.0695 55.9499 47.3047 49.9933C47.3047 47.5118 45.2934 45.5005 42.8125 45.5005ZM61.6797 49.9932C61.4423 55.9542 52.9305 55.9498 52.6953 49.9932C52.9327 44.0321 61.4445 44.0367 61.6797 49.9932ZM47.3047 64.3702C47.0673 70.3313 38.5555 70.3268 38.3203 64.3702C38.5577 58.4091 47.0695 58.4138 47.3047 64.3702ZM61.6797 64.3702C61.4423 70.3313 52.9305 70.3268 52.6953 64.3702C52.9327 58.4091 61.4445 58.4138 61.6797 64.3702Z" fill="#9834F0"/>
</svg>
