<svg width="42" height="42" viewBox="0 0 42 42" fill="none" xmlns="http://www.w3.org/2000/svg">
<g clip-path="url(#clip0_136_346)">
<path d="M40.4705 29.9163V18.8745L40.8191 18.691C41.5588 18.3028 42 17.6101 42 16.8377C42 16.0652 41.5588 15.3712 40.8191 14.983L22.9405 5.5938C21.4361 4.8014 19.5639 4.80273 18.0595 5.5938L0.179452 14.9843C-0.558809 15.3725 -1 16.0652 -1 16.8377C-1 17.6101 -0.558809 18.3028 0.179452 18.6923L5.60023 21.5402V28.1599C5.60023 29.6969 6.51496 31.1261 7.9856 31.8933L15.4476 35.7821C17.005 36.5932 18.7521 37 20.4993 37C22.2464 37 23.992 36.5945 25.5509 35.7821L33.0115 31.8933C34.4836 31.1275 35.3983 29.6969 35.3983 28.1599V21.5389L37.8234 20.2652V29.9163C37.2013 30.2992 36.7925 30.944 36.7925 31.6766C36.7925 32.8519 37.8469 33.8051 39.147 33.8051C40.447 33.8051 41.5015 32.8519 41.5015 31.6766C41.5015 30.9453 41.0926 30.3005 40.4705 29.9163ZM32.7526 28.1586H32.7512C32.7512 28.842 32.3467 29.4775 31.6908 29.8179L24.2303 33.7067C21.9302 34.9047 19.0698 34.9047 16.7712 33.7067L9.30918 29.8179C8.65474 29.4775 8.24885 28.842 8.24885 28.1586V22.9296L18.0595 28.0828C18.8124 28.4777 19.6566 28.6758 20.5007 28.6758C21.3449 28.6758 22.189 28.479 22.942 28.0828L32.7526 22.9296V28.1586ZM21.6111 26.0141C20.9257 26.3744 20.0742 26.3744 19.3889 26.0141L1.91922 16.8377L19.3875 7.66122C20.0728 7.30092 20.9243 7.30092 21.6096 7.66122L39.0793 16.8363L21.6111 26.0141Z" fill="#9834F0"/>
</g>
<defs>
<clipPath id="clip0_136_346">
<rect width="42" height="42" fill="white"/>
</clipPath>
</defs>
</svg>
