<svg width="33" height="33" viewBox="0 0 33 33" fill="none" xmlns="http://www.w3.org/2000/svg">
  <g transform="translate(4,0)" clip-path="url(#clip0_1_576)">
    <path d="M32.4342 12.0416L30.8202 10.4277C30.0663 9.67371 28.8397 9.67383 28.0857 10.4277L24.6861 13.8273V2.90039C24.6861 1.30112 23.385 0 21.7857 0H2.90094C1.30166 0 0.000549316 1.30112 0.000549316 2.90039V30.0996C0.000549316 31.6989 1.30166 33 2.90094 33H21.7857C23.385 33 24.6861 31.6989 24.6861 30.0996V22.4276L32.4342 14.7762C33.1881 14.0223 33.1881 12.7956 32.4342 12.0416ZM20.8714 23.4771L17.9631 24.8344L19.319 21.929L26.5362 14.7118L28.1318 16.3074L20.8714 23.4771ZM22.7525 30.0996C22.7525 30.6327 22.3188 31.0664 21.7857 31.0664H2.90094C2.36785 31.0664 1.93414 30.6327 1.93414 30.0996V2.90039C1.93414 2.3673 2.36785 1.93359 2.90094 1.93359H21.7857C22.3188 1.93359 22.7525 2.3673 22.7525 2.90039V15.7609C17.3914 21.122 17.7415 20.7368 17.6388 20.9568L15.0866 26.4259C14.9147 26.7944 14.9916 27.2309 15.279 27.5184C15.5665 27.8059 16.0032 27.8827 16.3715 27.7108L21.8406 25.1586C22.0411 25.065 22.0741 25.0068 22.7525 24.3369V30.0996ZM29.5076 14.9488L27.9033 13.3446L29.453 11.7949L31.0664 13.4094L29.5076 14.9488Z" fill="#9934F0"/>
    <path d="M5.15668 8.18555H19.5942C20.1281 8.18555 20.561 7.75268 20.561 7.21875C20.561 6.68482 20.1281 6.25195 19.5942 6.25195H5.15668C4.62275 6.25195 4.18988 6.68482 4.18988 7.21875C4.18988 7.75268 4.62275 8.18555 5.15668 8.18555Z" fill="#9934F0"/>
    <path d="M5.15668 13.3418H16.5004C17.0344 13.3418 17.4672 12.9089 17.4672 12.375C17.4672 11.8411 17.0344 11.4082 16.5004 11.4082H5.15668C4.62275 11.4082 4.18988 11.8411 4.18988 12.375C4.18988 12.9089 4.62275 13.3418 5.15668 13.3418Z" fill="#9934F0"/>
    <path d="M13.4067 16.5645H5.15668C4.62275 16.5645 4.18988 16.9973 4.18988 17.5312C4.18988 18.0652 4.62275 18.498 5.15668 18.498H13.4067C13.9406 18.498 14.3735 18.0652 14.3735 17.5312C14.3735 16.9973 13.9406 16.5645 13.4067 16.5645Z" fill="#9934F0"/>
  </g>
  <defs>
    <clipPath id="clip0_1_576">
      <rect width="33" height="33" fill="white"/>
    </clipPath>
  </defs>
</svg>
