<svg width="100" height="100" viewBox="0 0 100 100" fill="none" xmlns="http://www.w3.org/2000/svg">
<path fill-rule="evenodd" clip-rule="evenodd" d="M63.0575 85.1714C64.6747 86.2513 65.1103 88.4382 64.0302 90.0552C61.4476 93.9225 56.7982 96.316 51.7116 96.316C46.6254 96.316 41.9759 93.9225 39.3932 90.0552C38.3133 88.4382 38.749 86.2513 40.366 85.1714C41.9835 84.0915 44.1699 84.5268 45.2503 86.1442C46.416 87.8903 48.7734 89.2735 51.7116 89.2735C54.6502 89.2735 57.0076 87.8903 58.1734 86.1442C59.2537 84.5268 61.4402 84.0915 63.0575 85.1714Z" fill="#9834F0"/>
<path fill-rule="evenodd" clip-rule="evenodd" d="M72.7563 67.9261C80.9332 65.903 83.9249 55.334 77.8017 49.144L75.0935 46.4063C72.8692 44.1579 71.6315 41.1086 71.6315 37.944V34.2132C71.6315 30.4041 71.0058 26.6233 69.7816 23.0291C67.8357 17.3166 63.002 13.2116 57.2512 12.2737L57.0184 12.2357C53.4999 11.6618 49.9152 11.6618 46.3968 12.2357L46.1639 12.2737C40.4129 13.2116 35.5794 17.3166 33.6338 23.0291C32.4093 26.6233 31.7834 30.4041 31.7834 34.2132V37.944C31.7834 41.1086 30.5458 44.1579 28.3218 46.4063L25.6132 49.144C19.4904 55.334 22.4821 65.903 30.659 67.9261C44.4924 71.3492 58.9227 71.3492 72.7563 67.9261ZM82.8085 44.1912C92.6556 54.1457 88.0932 71.3863 74.4478 74.7625C59.5034 78.4604 43.9117 78.4604 28.9674 74.7625C15.3217 71.3863 10.7595 54.1457 20.6064 44.1912L23.315 41.4535C24.2183 40.5402 24.7409 39.278 24.7409 37.944V34.2132C24.7409 29.6336 25.493 25.0855 26.9673 20.7583C29.7303 12.6458 36.6484 6.68993 45.03 5.32292L45.2629 5.28494C49.5321 4.58861 53.883 4.58861 58.1522 5.28494L58.3851 5.32292C66.7664 6.68993 73.6846 12.6458 76.448 20.7583C77.9219 25.0855 78.6741 29.6336 78.6741 34.2132V37.944C78.6741 39.278 79.1969 40.5402 80.1003 41.4535L82.8085 44.1912Z" fill="#9834F0"/>
</svg>
