<svg width="348" height="123" viewBox="0 0 348 123" fill="none" xmlns="http://www.w3.org/2000/svg">
<rect width="348" height="123" rx="20" fill="#F2F6F8"/>
<g clip-path="url(#clip0_103_4137)">
<path d="M39.763 85.9433L30.4573 64.5132C30.4029 64.3496 30.1961 63.7934 30.4573 63.5317C30.7185 63.2699 31.1103 63.3681 31.2736 63.6952C34.1578 69.4754 39.9916 81.1338 40.2528 81.5265C40.514 81.919 40.797 81.6901 40.9058 81.5265C47.0553 69.0937 59.5826 43.901 60.4969 42.5923C61.4111 41.2836 62.4015 42.2651 62.7825 42.9194C67.9523 53.2256 78.3573 73.9032 78.6185 74.1649C78.8798 74.4266 79.0539 74.274 79.1083 74.1649C84.7679 62.223 96.1525 38.1754 96.4137 37.521C96.6749 36.8667 96.5703 36.8667 96.4137 36.8667H92.3323C90.5038 36.8667 90.9311 35.8888 91.3868 35.478C96.0669 32.3153 105.687 25.7426 106.862 25.0883C108.038 24.4339 108.223 25.2518 108.168 25.7426C108.44 31.7954 108.986 44.0174 108.855 44.8026C108.725 45.5878 108.039 45.7842 107.679 45.3733C106.862 44.3372 105.164 42.1669 104.903 41.7743C104.642 41.3817 104.468 41.6108 104.413 41.7743C97.611 54.8614 83.4836 81.6246 81.3939 84.6347C79.3043 87.6446 77.401 85.8089 76.6936 84.5547C71.6869 73.2126 61.5744 50.6735 61.3132 50.281C61.0519 49.8883 60.8778 50.1174 60.8234 50.281C54.4563 61.7867 41.5915 84.9946 41.0691 85.7797C40.5467 86.565 39.9263 86.2705 39.763 85.9433Z" fill="#2D3945"/>
</g>
<path d="M131.017 57.1363H134.925L140.098 71.8076L139.552 71.5801L143.575 61.3728L145.126 65.8651L139.379 78.6883L131.017 57.1363ZM141.276 57.1363H144.58L150.328 71.4948L149.667 71.3811L154.437 57.1363H158.029L149.868 78.6314L141.276 57.1363ZM166.554 57.0226H169.916V77.7216H166.554V57.0226ZM198.663 78.4608L182.6 63.0503L183.577 63.4484L183.663 77.7216H180.272V56.3118H180.416L196.249 71.7223L195.473 71.4948L195.416 57.0226H198.749V78.4608H198.663ZM220.093 61.2306C219.346 60.8515 218.551 60.5293 217.708 60.2639C216.865 59.9796 216.06 59.8374 215.294 59.8374C214.259 59.8374 213.436 60.0649 212.823 60.5198C212.229 60.9747 211.932 61.6003 211.932 62.3964C211.932 62.965 212.143 63.4673 212.564 63.9033C212.986 64.3203 213.522 64.6899 214.173 65.0122C214.825 65.3154 215.514 65.6093 216.242 65.8936C216.874 66.121 217.497 66.3959 218.11 66.7181C218.742 67.0214 219.307 67.4005 219.806 67.8555C220.304 68.3104 220.696 68.879 220.984 69.5614C221.29 70.2248 221.443 71.0494 221.443 72.0351C221.443 73.1155 221.166 74.1106 220.61 75.0205C220.055 75.9114 219.26 76.6222 218.225 77.1529C217.191 77.6837 215.926 77.9491 214.432 77.9491C213.57 77.9491 212.717 77.8543 211.874 77.6647C211.051 77.4752 210.265 77.2193 209.518 76.897C208.771 76.5559 208.081 76.1768 207.449 75.7597L208.943 73.1724C209.403 73.5136 209.93 73.8263 210.524 74.1106C211.118 74.395 211.731 74.6224 212.363 74.793C212.995 74.9447 213.589 75.0205 214.145 75.0205C214.738 75.0205 215.323 74.9257 215.897 74.7362C216.491 74.5466 216.98 74.2338 217.363 73.7979C217.765 73.3619 217.966 72.7838 217.966 72.0635C217.966 71.4759 217.794 70.9736 217.449 70.5565C217.104 70.1395 216.654 69.7794 216.099 69.4761C215.562 69.1539 214.968 68.8695 214.317 68.6231C213.666 68.3767 212.995 68.1019 212.305 67.7986C211.635 67.4953 211.012 67.1257 210.438 66.6897C209.863 66.2348 209.394 65.6851 209.03 65.0406C208.666 64.3961 208.484 63.6 208.484 62.6523C208.484 61.5149 208.752 60.5293 209.288 59.6953C209.825 58.8612 210.562 58.1978 211.501 57.705C212.459 57.2121 213.56 56.9468 214.805 56.9089C216.281 56.9089 217.535 57.0889 218.57 57.4491C219.624 57.7903 220.553 58.2073 221.357 58.7001L220.093 61.2306ZM236.358 57.0226C237.948 57.0226 239.308 57.288 240.439 57.8187C241.569 58.3494 242.431 59.1077 243.025 60.0933C243.638 61.079 243.945 62.2732 243.945 63.6758C243.945 64.4909 243.81 65.306 243.542 66.1211C243.293 66.9361 242.891 67.6754 242.335 68.3388C241.799 69.0022 241.071 69.5424 240.151 69.9595C239.251 70.3575 238.14 70.5565 236.818 70.5565H233.801V77.7216H230.439V57.0226H236.358ZM236.818 67.3437C237.546 67.3437 238.159 67.2204 238.657 66.974C239.155 66.7276 239.538 66.4148 239.807 66.0357C240.094 65.6566 240.295 65.2681 240.41 64.87C240.544 64.453 240.611 64.0834 240.611 63.7611C240.611 63.4199 240.554 63.0503 240.439 62.6523C240.324 62.2352 240.132 61.8467 239.864 61.4865C239.596 61.1074 239.222 60.8041 238.743 60.5767C238.264 60.3303 237.651 60.2071 236.904 60.2071H233.801V67.3437H236.818ZM252.603 57.0226H266.483V60.2071H255.965V65.723H265.333V68.9359H255.965V74.5371H266.885V77.7216H252.603V57.0226ZM282.006 57.0226C283.155 57.0226 284.209 57.1742 285.167 57.4775C286.125 57.7618 286.939 58.1883 287.61 58.757C288.28 59.3256 288.797 60.027 289.161 60.861C289.544 61.6761 289.736 62.6143 289.736 63.6758C289.736 64.4909 289.611 65.306 289.362 66.1211C289.113 66.9361 288.701 67.6754 288.127 68.3388C287.571 69.0022 286.834 69.533 285.914 69.931C284.995 70.3291 283.855 70.5281 282.495 70.5281H279.477V77.7216H276.115V57.0226H282.006ZM282.466 67.3437C283.213 67.3437 283.836 67.2299 284.334 67.0025C284.832 66.756 285.215 66.4528 285.483 66.0926C285.77 65.7325 285.972 65.3534 286.087 64.9553C286.221 64.5383 286.288 64.1497 286.288 63.7896C286.288 63.4484 286.23 63.0788 286.115 62.6807C286 62.2637 285.809 61.8751 285.541 61.5149C285.272 61.1358 284.889 60.8231 284.391 60.5767C283.912 60.3303 283.309 60.2071 282.581 60.2071H279.477V67.3437H282.466ZM286.087 69.3055L291.431 77.7216H287.552L282.092 69.3908L286.087 69.3055ZM298.133 57.0226H312.127V60.2071H306.725V77.7216H303.391V60.2071H298.133V57.0226Z" fill="#2D3945"/>
<defs>
<clipPath id="clip0_103_4137">
<rect width="79.0171" height="85.3105" fill="white" transform="translate(30 24.8447)"/>
</clipPath>
</defs>
</svg>
