<svg width="25" height="33" viewBox="0 0 25 33" fill="none" xmlns="http://www.w3.org/2000/svg">
<path d="M20.75 0H15.25V1.375C15.25 2.10435 14.9603 2.80382 14.4445 3.31954C13.9288 3.83527 13.2293 4.125 12.5 4.125C11.7707 4.125 11.0712 3.83527 10.5555 3.31954C10.0397 2.80382 9.75 2.10435 9.75 1.375V0H4.25C3.15598 0 2.10677 0.434597 1.33318 1.20818C0.559597 1.98177 0.125 3.03098 0.125 4.125V33H9.75V31.625C9.75 30.8957 10.0397 30.1962 10.5555 29.6805C11.0712 29.1647 11.7707 28.875 12.5 28.875C13.2293 28.875 13.9288 29.1647 14.4445 29.6805C14.9603 30.1962 15.25 30.8957 15.25 31.625V33H24.875V4.125C24.875 3.03098 24.4404 1.98177 23.6668 1.20818C22.8932 0.434597 21.844 0 20.75 0ZM17.8267 30.25C17.5229 29.0682 16.8346 28.0209 15.8703 27.2732C14.9059 26.5254 13.7203 26.1196 12.5 26.1196C11.2797 26.1196 10.0941 26.5254 9.12974 27.2732C8.1654 28.0209 7.47712 29.0682 7.17325 30.25H2.875V23.375H7V20.625H2.875V4.125C2.875 3.76033 3.01987 3.41059 3.27773 3.15273C3.53559 2.89487 3.88533 2.75 4.25 2.75H7.17325C7.47712 3.93185 8.1654 4.97908 9.12974 5.72684C10.0941 6.4746 11.2797 6.88043 12.5 6.88043C13.7203 6.88043 14.9059 6.4746 15.8703 5.72684C16.8346 4.97908 17.5229 3.93185 17.8267 2.75H20.75C21.1147 2.75 21.4644 2.89487 21.7223 3.15273C21.9801 3.41059 22.125 3.76033 22.125 4.125V20.625H18V23.375H22.125V30.25H17.8267Z" fill="#4A6375"/>
<path d="M15.25 20.625H9.75V23.375H15.25V20.625Z" fill="#4A6375"/>
</svg>
