<svg width="39" height="39" viewBox="0 0 39 39" fill="none" xmlns="http://www.w3.org/2000/svg">
<g clip-path="url(#clip0_138_363)">
<path d="M31.6178 19.0566C35.6148 15.4633 35.9422 9.31014 32.3489 5.3131C29.0532 1.64716 23.5369 1.02437 19.5069 3.86334C15.1137 0.762885 9.039 1.81087 5.93855 6.20398C3.09363 10.2351 3.71388 15.757 7.38219 19.0565C2.82422 21.4592 -0.0205363 26.1961 0.000111644 31.3484V35.527C0.000111644 36.2962 0.623712 36.9198 1.39299 36.9198H37.6071C38.3763 36.9198 38.9999 36.2962 38.9999 35.527V31.3484C39.0205 26.1961 36.1758 21.4592 31.6178 19.0566ZM25.0713 4.88431C28.9122 4.88006 32.0293 7.99023 32.0336 11.8311C32.0366 14.5703 30.4315 17.0561 27.9336 18.1804C27.8264 18.2291 27.7192 18.2737 27.6105 18.3197C27.2668 18.4584 26.9123 18.5687 26.5506 18.6499C26.4809 18.6652 26.4112 18.6735 26.3402 18.6875C25.9361 18.7649 25.526 18.8064 25.1145 18.8115C24.9292 18.8115 24.7426 18.7975 24.5573 18.7808C24.4877 18.7808 24.418 18.7808 24.3484 18.7669C23.5568 18.6737 22.7867 18.4467 22.0711 18.0955C22.0447 18.083 22.014 18.0844 21.9875 18.0733C21.8482 18.0064 21.709 17.9479 21.585 17.8727C21.5962 17.8587 21.6031 17.8434 21.6142 17.8295C22.2529 17.0088 22.7565 16.0915 23.1059 15.112L23.1491 14.995C23.308 14.5272 23.4314 14.0481 23.5183 13.5617C23.5308 13.4907 23.5405 13.4224 23.5517 13.3459C23.6323 12.8507 23.6746 12.3502 23.6785 11.8485C23.6745 11.3478 23.6321 10.8482 23.5517 10.354C23.5405 10.2816 23.5308 10.2147 23.5183 10.1381C23.4314 9.65177 23.308 9.17263 23.1491 8.70483L23.1059 8.58779C22.7565 7.60836 22.2529 6.69104 21.6142 5.87035C21.6031 5.85639 21.5961 5.84113 21.585 5.82717C22.6432 5.20986 23.8463 4.88439 25.0713 4.88431ZM6.96434 11.8486C6.95446 8.01235 10.0563 4.89443 13.8926 4.88455C15.6908 4.8799 17.4208 5.57287 18.7186 6.81762C18.7994 6.89564 18.8788 6.97358 18.9568 7.05438C19.196 7.30501 19.4166 7.5727 19.617 7.85524C19.6783 7.94159 19.7341 8.03356 19.7911 8.12269C19.9857 8.42228 20.1566 8.73665 20.3022 9.06286C20.3371 9.14227 20.3635 9.22306 20.3941 9.30239C20.541 9.6632 20.6565 10.036 20.7396 10.4166C20.7494 10.4584 20.7522 10.5002 20.7605 10.5434C20.9369 11.4082 20.9369 12.2998 20.7605 13.1647C20.7522 13.2079 20.7493 13.2497 20.7396 13.2914C20.6566 13.6721 20.541 14.0449 20.3941 14.4057C20.3635 14.4851 20.337 14.5659 20.3022 14.6452C20.1565 14.9709 19.9856 15.2848 19.7911 15.584C19.734 15.6731 19.6783 15.7651 19.617 15.8515C19.4167 16.1341 19.196 16.4017 18.9568 16.6523C18.8788 16.7331 18.7993 16.8111 18.7186 16.8891C18.1547 17.4265 17.5045 17.8653 16.7951 18.1872C16.6823 18.2387 16.5681 18.2861 16.4525 18.3265C16.1168 18.4598 15.7713 18.5669 15.419 18.6468C15.3313 18.6663 15.2407 18.6774 15.1516 18.6928C14.7734 18.7632 14.3899 18.8018 14.0053 18.8084H13.8521C13.4675 18.8019 13.084 18.7632 12.7058 18.6928C12.6166 18.6774 12.5261 18.6663 12.4383 18.6468C12.0861 18.5669 11.7405 18.4598 11.4049 18.3265C11.2892 18.2806 11.175 18.2332 11.0623 18.1872C8.5703 17.0621 6.96752 14.5827 6.96434 11.8486ZM25.0713 34.1342H2.78578V31.3485C2.76538 26.6286 5.73917 22.4146 10.1929 20.852C12.5838 21.8474 15.2732 21.8474 17.6642 20.852C18.1292 21.0219 18.5824 21.2224 19.0208 21.4523C19.3106 21.6014 19.578 21.7713 19.8566 21.9426C20.0377 22.0554 20.2214 22.1655 20.3956 22.2894C20.6644 22.4803 20.9179 22.6878 21.1672 22.9009C21.3275 23.0402 21.4862 23.1794 21.6366 23.3187C21.8664 23.536 22.0823 23.7658 22.2898 24.0013C22.4388 24.1712 22.5837 24.3439 22.7216 24.5222C22.9041 24.7562 23.0782 24.9958 23.2398 25.2423C23.3791 25.4512 23.5031 25.6684 23.6256 25.8858C23.7649 26.1253 23.893 26.3649 24.01 26.6142C24.127 26.8636 24.2301 27.1366 24.3303 27.4026C24.418 27.6338 24.5114 27.8636 24.5838 28.099C24.6813 28.4221 24.7495 28.7564 24.8178 29.0907C24.8596 29.2884 24.9139 29.4821 24.9445 29.6826C25.027 30.2341 25.0694 30.7908 25.0713 31.3485L25.0713 34.1342ZM36.2142 34.1342H27.8571V31.3485C27.8571 30.9125 27.832 30.4807 27.793 30.0531C27.7818 29.9278 27.7624 29.8038 27.7485 29.6785C27.7108 29.3706 27.6677 29.0656 27.6092 28.7633C27.5841 28.6343 27.5577 28.5047 27.5297 28.3747C27.4629 28.0646 27.3854 27.7572 27.2971 27.4526C27.2679 27.3523 27.2414 27.2507 27.2108 27.1518C26.8208 25.905 26.2556 24.72 25.5324 23.6321L25.4781 23.5527C25.2386 23.1971 24.9827 22.8531 24.7106 22.5207L24.7009 22.5081C24.4224 22.1627 24.1201 21.8269 23.8025 21.5094C23.8206 21.5094 23.8401 21.5094 23.8596 21.5094C24.2527 21.5611 24.6485 21.589 25.045 21.593H25.1216C25.4885 21.5898 25.8549 21.566 26.2192 21.522C26.3334 21.508 26.4463 21.4871 26.5604 21.469C26.8567 21.4235 27.1492 21.3645 27.4379 21.2921C27.5201 21.2712 27.6037 21.2517 27.6873 21.2281C28.0662 21.125 28.4383 20.9984 28.8015 20.8492C33.2585 22.4102 36.235 26.6262 36.2143 31.3486V34.1342H36.2142Z" fill="black"/>
</g>
<defs>
<clipPath id="clip0_138_363">
<rect width="39" height="39" fill="white"/>
</clipPath>
</defs>
</svg>
