<svg width="35" height="35" viewBox="0 0 35 35" fill="none" xmlns="http://www.w3.org/2000/svg">
<path fill-rule="evenodd" clip-rule="evenodd" d="M15.8737 0.927064H19.1263C21.2347 0.927033 22.9341 0.927002 24.2707 1.1067C25.6584 1.29327 26.8267 1.69239 27.7547 2.62035C28.2148 3.08049 28.5448 3.59974 28.7835 4.17554C30.2205 4.35555 31.4268 4.75092 32.3797 5.70376C33.3077 6.63172 33.7068 7.80011 33.8934 9.18778C34.073 10.5244 34.073 12.2238 34.073 14.3321V20.668C34.073 22.7763 34.073 24.4757 33.8934 25.8123C33.7068 27.2 33.3077 28.3684 32.3797 29.2963C31.4268 30.2493 30.2205 30.6445 28.7835 30.8246C28.5448 31.4003 28.2148 31.9195 27.7547 32.3797C26.8267 33.3076 25.6584 33.7067 24.2707 33.8933C22.9341 34.0729 21.2347 34.0729 19.1263 34.0729H15.8737C13.7654 34.0729 12.066 34.0729 10.7294 33.8933C9.34176 33.7067 8.17337 33.3076 7.24541 32.3797C6.78532 31.9195 6.45523 31.4003 6.2166 30.8246C4.77966 30.6445 3.57329 30.2493 2.62041 29.2963C1.69245 28.3684 1.29333 27.2 1.10676 25.8123C0.927063 24.4757 0.927094 22.7763 0.927125 20.668V14.3321C0.927094 12.2238 0.927063 10.5244 1.10676 9.18778C1.29333 7.80011 1.69245 6.63172 2.62041 5.70376C3.57327 4.75092 4.77963 4.35555 6.21652 4.17554C6.45517 3.59974 6.78527 3.08049 7.24541 2.62035C8.17337 1.69239 9.34176 1.29327 10.7294 1.1067C12.066 0.927002 13.7654 0.927033 15.8737 0.927064ZM5.67305 6.61654C4.99839 6.77912 4.57779 7.01675 4.2556 7.33895C3.82893 7.76563 3.55073 8.36468 3.39865 9.49591C3.24208 10.6604 3.23962 12.2038 3.23962 14.4168V20.5835C3.23962 22.7964 3.24208 24.3397 3.39865 25.5042C3.55073 26.6354 3.82893 27.2345 4.2556 27.6611C4.57781 27.9833 4.9984 28.221 5.67307 28.3835C5.55208 27.1329 5.55209 25.5991 5.55212 23.7513V11.2487C5.55209 9.40086 5.55208 7.86717 5.67305 6.61654ZM29.3271 28.3835C30.0017 28.221 30.4223 27.9833 30.7445 27.6611C31.1712 27.2345 31.4493 26.6354 31.6015 25.5042C31.758 24.3397 31.7605 22.7964 31.7605 20.5835V14.4168C31.7605 12.2038 31.758 10.6604 31.6015 9.49591C31.4493 8.36468 31.1712 7.76563 30.7445 7.33895C30.4223 7.01675 30.0017 6.77912 29.3271 6.61654C29.448 7.86717 29.448 9.40088 29.448 11.2487V23.7513C29.448 25.5991 29.448 27.1329 29.3271 28.3835ZM11.0376 3.39859C9.90633 3.55067 9.30727 3.82887 8.8806 4.25554C8.45393 4.68221 8.17573 5.28127 8.02365 6.4125C7.86708 7.577 7.86462 9.12037 7.86462 11.3333V23.6666C7.86462 25.8796 7.86708 27.4229 8.02365 28.5875C8.17573 29.7188 8.45393 30.3177 8.8806 30.7444C9.30727 31.1712 9.90633 31.4493 11.0376 31.6014C12.2021 31.7579 13.7454 31.7604 15.9584 31.7604H19.0417C21.2546 31.7604 22.798 31.7579 23.9626 31.6014C25.0938 31.4493 25.6928 31.1712 26.1195 30.7444C26.5462 30.3177 26.8243 29.7188 26.9765 28.5875C27.133 27.4229 27.1355 25.8796 27.1355 23.6666V11.3333C27.1355 9.12039 27.133 7.577 26.9765 6.4125C26.8243 5.28127 26.5462 4.68221 26.1195 4.25554C25.6928 3.82887 25.0938 3.55067 23.9626 3.39859C22.798 3.24201 21.2546 3.23956 19.0417 3.23956H15.9584C13.7454 3.23956 12.2021 3.24201 11.0376 3.39859ZM11.7188 12.875C11.7188 12.2364 12.2365 11.7187 12.875 11.7187H22.125C22.7636 11.7187 23.2813 12.2364 23.2813 12.875C23.2813 13.5136 22.7636 14.0312 22.125 14.0312H12.875C12.2365 14.0312 11.7188 13.5136 11.7188 12.875ZM11.7188 19.0416C11.7188 18.4031 12.2365 17.8854 12.875 17.8854H22.125C22.7636 17.8854 23.2813 18.4031 23.2813 19.0416C23.2813 19.6802 22.7636 20.1979 22.125 20.1979H12.875C12.2365 20.1979 11.7188 19.6802 11.7188 19.0416ZM11.7188 25.2083C11.7188 24.5698 12.2365 24.0521 12.875 24.0521H17.5C18.1386 24.0521 18.6563 24.5698 18.6563 25.2083C18.6563 25.8469 18.1386 26.3646 17.5 26.3646H12.875C12.2365 26.3646 11.7188 25.8469 11.7188 25.2083Z" fill="#4A6375"/>
</svg>
