<svg width="39" height="42" viewBox="0 0 39 42" fill="none" xmlns="http://www.w3.org/2000/svg">
<path d="M24.2313 20.7079L16.1869 16.1883C15.7243 15.9284 15.1776 15.9381 14.7242 16.2139C14.2706 16.4901 14 16.9779 14 17.5193V26.481C14 27.0198 14.2689 27.5068 14.7195 27.7832C14.9548 27.9275 15.2157 28 15.4771 28C15.7166 28 15.9566 27.9392 16.1774 27.8171L24.2221 23.3754C24.6997 23.1115 24.9978 22.6018 25 22.0446C25.0019 21.4875 24.7075 20.9755 24.2313 20.7079ZM16.1338 25.3537V18.6558L22.1461 22.0338L16.1338 25.3537Z" fill="#9834F0"/>
<path d="M36.7423 13.8445L36.7407 13.827C36.7111 13.5188 36.416 10.7776 35.1978 9.38337C33.7898 7.74343 32.1935 7.54421 31.4258 7.44869C31.3623 7.4408 31.3041 7.4335 31.252 7.4259L31.1908 7.41889C26.5638 7.05083 19.576 7.00058 19.506 7.00029L19.4999 7L19.4937 7.00029C19.4238 7.00058 12.4359 7.05083 7.76724 7.41889L7.70556 7.4259C7.65589 7.43321 7.60115 7.43993 7.54161 7.44752C6.78272 7.54333 5.20352 7.74285 3.79148 9.44208C2.63125 10.8214 2.29587 13.5039 2.26142 13.8054L2.25741 13.8445C2.247 13.9728 2 17.0257 2 20.0905V22.9556C2 26.0205 2.247 29.0734 2.25741 29.2019L2.25928 29.2212C2.28892 29.5244 2.58372 32.2154 3.79629 33.6102C5.12021 35.1952 6.7942 35.405 7.69461 35.5177C7.83694 35.5355 7.9595 35.5507 8.04308 35.5668L8.12399 35.5791C10.7956 35.8572 19.172 35.9942 19.5271 35.9997L19.5378 36L19.5485 35.9997C19.6184 35.9994 26.606 35.9492 31.233 35.5811L31.2942 35.5741C31.3527 35.5656 31.4183 35.558 31.4904 35.5499C32.2451 35.4622 33.8157 35.2802 35.2083 33.6041C36.3685 32.2244 36.7041 29.5419 36.7383 29.2408L36.7423 29.2016C36.7527 29.0731 37 26.0205 37 22.9556V20.0905C36.9997 17.0257 36.7527 13.9731 36.7423 13.8445ZM34.9487 22.9556C34.9487 25.7923 34.7223 28.7138 34.7009 28.9819C34.6138 29.7207 34.26 31.4179 33.6947 32.09C32.8232 33.139 31.9278 33.243 31.2741 33.3187C31.1951 33.3277 31.1219 33.3365 31.0557 33.3456C26.5803 33.6996 19.8563 33.7539 19.5466 33.756C19.1992 33.7504 10.9454 33.6123 8.35524 33.3491C8.22252 33.3254 8.07913 33.3073 7.92799 33.2886C7.16136 33.1925 6.11195 33.061 5.30499 32.09L5.28603 32.0678C4.73062 31.4348 4.38695 29.8478 4.29963 28.9907C4.28335 28.788 4.05103 25.8321 4.05103 22.9556V20.0905C4.05103 17.257 4.27694 14.3388 4.29883 14.0651C4.40271 13.1949 4.76319 11.6005 5.30499 10.9561C6.20327 9.87529 7.15041 9.75552 7.77686 9.67636C7.83667 9.66876 7.89248 9.66175 7.94402 9.65445C12.4845 9.29865 19.2569 9.24578 19.4999 9.24373C19.7429 9.24549 26.5128 9.29865 31.013 9.65445C31.0683 9.66204 31.1286 9.66964 31.1935 9.67782C31.8378 9.75815 32.8117 9.87967 33.7054 10.9225L33.7137 10.9322C34.2691 11.5652 34.6128 13.18 34.7001 14.0543C34.7156 14.2456 34.9487 17.208 34.9487 20.0905V22.9556Z" fill="#9834F0"/>
</svg>
