<svg width="100" height="100" viewBox="0 0 24 24" fill="none" xmlns="http://www.w3.org/2000/svg">
  <path d="M5 4H15C15.5523 4 16 4.44772 16 5V7C16 7.55228 15.5523 8 15 8H5C4.44772 8 4 7.55228 4 7V5C4 4.44772 4.44772 4 5 4Z" 
        stroke="#9834F0" stroke-width="1.5" stroke-linecap="round" stroke-linejoin="round"/>
  <path d="M5 10H19C19.5523 10 20 10.4477 20 11V13C20 13.5523 19.5523 14 19 14H5C4.44772 14 4 13.5523 4 13V11C4 10.4477 4.44772 10 5 10Z" 
        stroke="#9834F0" stroke-width="1.5" stroke-linecap="round" stroke-linejoin="round"/>
  <path d="M5 16H13C13.5523 16 14 16.4477 14 17V19C14 19.5523 13.5523 20 13 20H5C4.44772 20 4 19.5523 4 19V17C4 16.4477 4.44772 16 5 16Z" 
        stroke="#9834F0" stroke-width="1.5" stroke-linecap="round" stroke-linejoin="round"/>
</svg>
