<svg width="100" height="100" viewBox="0 0 100 100" fill="none" xmlns="http://www.w3.org/2000/svg">
<path d="M51.282 48.7182C57.6225 48.7182 63.1121 46.5704 67.5989 42.3328C72.0841 38.0958 74.3589 32.9117 74.3589 26.9226C74.3589 20.9356 72.0849 15.7507 67.5981 11.5124C63.1114 7.27622 57.6218 5.12842 51.282 5.12842C44.9408 5.12842 39.4519 7.27622 34.9659 11.5131C30.4799 15.75 28.2051 20.9349 28.2051 26.9226C28.2051 32.9117 30.4799 38.0965 34.9659 42.3335C39.4533 46.5697 44.943 48.7182 51.282 48.7182ZM38.9365 15.2626C42.3787 12.0116 46.4166 10.4313 51.282 10.4313C56.1466 10.4313 60.1853 12.0116 63.6282 15.2626C67.0704 18.5144 68.7443 22.3288 68.7443 26.9226C68.7443 31.5178 67.0704 35.3315 63.6282 38.5833C60.1853 41.835 56.1466 43.4153 51.282 43.4153C46.4181 43.4153 42.3802 41.8343 38.9365 38.5833C35.4936 35.3322 33.8197 31.5178 33.8197 26.9226C33.8197 22.3288 35.4936 18.5144 38.9365 15.2626Z" fill="#9834F0"/>
<path d="M89.5572 75.6624C89.4327 73.8261 89.1809 71.823 88.8102 69.7077C88.4359 67.5766 87.9541 65.562 87.3773 63.7207C86.7808 61.8175 85.9711 59.9381 84.9687 58.137C83.9298 56.2676 82.7086 54.6399 81.3383 53.3004C79.9054 51.8991 78.1511 50.7724 76.1224 49.9506C74.1007 49.1331 71.8603 48.719 69.4637 48.719C68.5225 48.719 67.6123 49.1137 65.8544 50.2835C64.7725 51.0046 63.507 51.8387 62.0945 52.7611C60.8867 53.5477 59.2506 54.2847 57.2296 54.9519C55.2579 55.604 53.2559 55.9348 51.2793 55.9348C49.304 55.9348 47.3021 55.604 45.329 54.9519C43.3101 54.2854 41.6732 53.5484 40.4675 52.7619C39.0684 51.848 37.8022 51.014 36.7042 50.2828C34.9477 49.113 34.0375 48.7183 33.0963 48.7183C30.699 48.7183 28.4593 49.1331 26.4383 49.9513C24.411 50.7717 22.6559 51.8983 21.2216 53.3011C19.8514 54.6413 18.6302 56.2684 17.5919 58.137C16.591 59.9381 15.7806 61.8168 15.1841 63.7214C14.608 65.5627 14.1261 67.5766 13.7519 69.7077C13.3805 71.8201 13.1294 73.8239 13.0049 75.6645C12.8825 77.4641 12.8206 79.3371 12.8206 81.2295C12.8206 86.1488 14.3505 90.1313 17.3675 93.0684C20.3473 95.9666 24.2893 97.4362 29.0846 97.4362H73.4796C78.2735 97.4362 82.2155 95.9666 85.1959 93.0684C88.2137 90.1334 89.7436 86.1495 89.7436 81.2288C89.7429 79.3299 89.6803 77.457 89.5572 75.6624ZM81.4706 89.0672C79.5017 90.9826 76.8877 91.9137 73.4789 91.9137H29.0846C25.6751 91.9137 23.0611 90.9826 21.0929 89.0679C19.162 87.1892 18.2236 84.6246 18.2236 81.2295C18.2236 79.4637 18.2806 77.7201 18.3945 76.0463C18.5057 74.4041 18.7329 72.6002 19.0698 70.6834C19.4026 68.7903 19.826 67.0136 20.3297 65.4053C20.8129 63.863 21.4721 62.3359 22.2895 60.8649C23.0696 59.4628 23.9671 58.26 24.9576 57.2908C25.884 56.3841 27.0517 55.6421 28.4276 55.0856C29.7001 54.5708 31.1302 54.289 32.6827 54.2466C32.8719 54.3494 33.2088 54.5457 33.7547 54.9095C34.8654 55.6493 36.1456 56.4934 37.561 57.4173C39.1563 58.457 41.2118 59.396 43.6674 60.2063C46.178 61.036 48.7385 61.4573 51.28 61.4573C53.8215 61.4573 56.3827 61.036 58.8918 60.207C61.3496 59.3952 63.4043 58.457 65.0018 57.4159C66.4502 56.4697 67.6946 55.65 68.8053 54.9095C69.3511 54.5464 69.6881 54.3494 69.8773 54.2466C71.4305 54.289 72.8606 54.5708 74.1338 55.0856C75.509 55.6421 76.6767 56.3848 77.6031 57.2908C78.5935 58.2592 79.4911 59.4621 80.2712 60.8656C81.0893 62.3359 81.7491 63.8638 82.2317 65.4045C82.736 67.0151 83.1602 68.791 83.4922 70.6826C83.8285 72.6031 84.0564 74.4077 84.1675 76.047V76.0485C84.2822 77.7158 84.3399 79.4586 84.3406 81.2295C84.3399 84.6253 83.4015 87.1892 81.4706 89.0672Z" fill="#9834F0"/>
</svg>
