<svg width="100" height="101" viewBox="0 0 100 101" fill="none" xmlns="http://www.w3.org/2000/svg">
<path d="M49.9515 8.40507C49.4036 8.41051 48.8621 8.52525 48.3581 8.74293C47.854 8.96061 47.3973 9.27692 47.014 9.67362C46.6308 10.0703 46.3285 10.5399 46.1245 11.0551C45.9205 11.5703 45.8187 12.121 45.8251 12.6761V46.4568C45.8254 47.5773 46.265 48.652 47.0472 49.4442C47.8294 50.2364 48.8902 50.6812 49.9963 50.6812C51.1023 50.6812 52.1631 50.2364 52.9453 49.4442C53.7275 48.652 54.1671 47.5773 54.1674 46.4568V12.6761C54.1739 12.1134 54.0693 11.5549 53.8597 11.0338C53.6501 10.5126 53.3398 10.0391 52.9471 9.64115C52.5543 9.24323 52.0869 8.92907 51.5725 8.71676C51.0581 8.50445 50.5069 8.3985 49.9515 8.40507ZM74.2621 16.8729C74.1264 16.8689 73.9906 16.8717 73.8552 16.8811C73.0313 16.952 72.2469 17.2696 71.6017 17.7934C70.9565 18.3172 70.4796 19.0234 70.2318 19.8225C69.984 20.6216 69.9764 21.4776 70.21 22.2811C70.4437 23.0846 70.9079 23.7995 71.5438 24.3349C78.7621 30.5448 83.3287 39.7877 83.3288 50.1669C83.3288 68.908 68.4742 84.0135 50.0166 84.0135C31.559 84.0135 16.6718 68.908 16.6719 50.1669C16.6719 39.8477 21.1805 30.6677 28.3266 24.4585C28.743 24.0985 29.0852 23.6588 29.3339 23.1648C29.5825 22.6707 29.7327 22.132 29.7758 21.5792C29.8189 21.0264 29.7541 20.4706 29.585 19.9432C29.416 19.4158 29.1461 18.9273 28.7907 18.5055C28.4354 18.0837 28.0015 17.737 27.5138 17.4851C27.0261 17.2333 26.4943 17.0809 25.9486 17.0372C25.4029 16.9936 24.8541 17.0594 24.3335 17.2306C23.8129 17.4019 23.3306 17.6753 22.9143 18.0353C13.9937 25.7863 8.32963 37.3395 8.32959 50.1669C8.32955 73.4635 27.0474 92.4566 50.0166 92.4566C72.9858 92.4566 91.663 73.4635 91.6629 50.1669C91.6629 37.2647 85.9428 25.6639 76.9317 17.9117C76.1906 17.2573 75.2451 16.8894 74.2621 16.8729Z" fill="#9834F0"/>
</svg>
