<svg width="100" height="103" viewBox="0 0 100 103" fill="none" xmlns="http://www.w3.org/2000/svg">
<path d="M50.9223 15.9958C58.5557 15.9958 69.103 17.0298 72.4865 17.7267C72.4976 17.7283 72.5087 17.7316 72.5197 17.7332C77.1317 18.6548 81.8623 23.307 82.8694 27.9054C83.9477 33.2707 84.4552 38.6182 84.4663 44.7325C84.4552 50.8453 83.9477 56.1943 82.8694 61.5597C81.8623 66.1565 77.1317 70.8102 72.5197 71.7319C72.5087 71.7335 72.4976 71.7368 72.4865 71.7384C70.4628 72.1552 66.2097 72.6503 61.6483 73.0003C59.7589 73.1453 58.045 74.2004 57.0268 75.8467C56.4814 76.7276 55.8995 77.6525 55.2956 78.5953C53.2892 81.7249 51.5105 84.327 50.0006 86.3461C48.4906 84.327 46.7119 81.7249 44.7055 78.5953C44.1016 77.6525 43.5182 76.7276 42.9743 75.8467C41.9561 74.2004 40.2438 73.1453 38.3528 73.0003C33.793 72.6503 29.5383 72.1552 27.5146 71.7384C27.5035 71.7368 27.4924 71.7335 27.4814 71.7319C22.8694 70.8102 18.1388 66.1581 17.1317 61.5597C16.0534 56.1943 15.5459 50.8469 15.5348 44.7325C15.5459 38.6182 16.0534 33.2707 17.1317 27.9054C18.1388 23.3086 22.8694 18.6565 27.4814 17.7348C27.4924 17.7332 27.5035 17.7299 27.5146 17.7283C30.8996 17.0314 41.4454 15.9974 49.0788 15.9974C49.3697 15.9974 49.6543 15.9974 49.9341 16.0023H50.0006C50.0006 16.0023 50.0448 16.0023 50.067 16.0023C50.3468 15.999 50.6314 15.9974 50.9223 15.9974M49.0788 9.80811C41.3505 9.80811 30.3731 10.8274 26.3367 11.6579C19.4432 13.0355 12.779 19.5211 11.2564 26.6011C10.39 30.8999 9.5378 36.7488 9.52515 44.7325C9.5378 52.7162 10.39 58.5636 11.2564 62.8624C12.779 69.9423 19.4432 76.428 26.3367 77.8055C28.6039 78.2729 33.0641 78.7988 37.9054 79.1701C38.454 80.0575 39.0485 81.002 39.692 82.0034C42.2612 86.0107 44.2281 88.8033 45.7174 90.7491C46.957 92.3677 48.4796 93.177 50.0006 93.177C51.5215 93.177 53.0441 92.3677 54.2837 90.7491C55.773 88.8033 57.7383 86.0107 60.3091 82.0034C60.9526 81.0003 61.5455 80.0575 62.0957 79.1701C66.9386 78.7988 71.3972 78.2729 73.666 77.8055C80.5595 76.428 87.2237 69.9423 88.7463 62.8624C89.6127 58.5636 90.4649 52.7162 90.4775 44.7325C90.4649 36.7488 89.6127 30.9015 88.7463 26.6027C87.2237 19.5227 80.5595 13.0371 73.666 11.6595C69.628 10.8274 58.6506 9.80811 50.9223 9.80811C50.6093 9.80811 50.3025 9.80973 50.0006 9.81299C49.7001 9.80973 49.3918 9.80811 49.0788 9.80811Z" fill="#9834F0"/>
<path d="M53.7584 69.1288C53.6149 70.2399 52.8814 71.2471 52.0723 71.4441C51.582 71.5554 50.9136 71.6612 50.0008 71.663C49.0893 71.663 48.4209 71.5572 47.9293 71.4441C47.1201 71.2471 46.3867 70.2399 46.2432 69.1288C46.1621 68.4556 46.0851 67.5378 46.0837 66.2844C46.0837 65.0328 46.1608 64.1151 46.2432 63.44C46.3867 62.3289 47.1201 61.3218 47.9293 61.1247C48.4196 61.0134 49.088 60.9076 50.0008 60.9058C50.9123 60.9058 51.5806 61.0116 52.0723 61.1247C52.8814 61.3218 53.6149 62.3289 53.7584 63.44C53.8394 64.1132 53.9165 65.031 53.9178 66.2844C53.9178 67.536 53.8408 68.4537 53.7584 69.1288Z" fill="#9834F0"/>
<path d="M50.4673 55.5262C49.0336 55.5262 47.7994 54.3768 47.6389 52.8252C47.618 52.6145 47.4425 50.7068 47.9929 48.4209C48.7772 45.1659 50.6218 42.6868 53.3272 41.2564C58.2792 38.6352 58.6631 35.6724 58.6631 34.8263C58.6631 34.1942 58.4291 32.8149 57.5548 31.6576C56.3821 30.1075 54.3515 29.3221 51.5186 29.3221C48.6857 29.3221 46.8066 30.3438 45.3384 32.4462C44.2407 34.017 43.8912 35.5974 43.8882 35.6117C43.5628 37.2512 42.0511 38.2984 40.511 37.9504C38.9708 37.604 37.987 35.9933 38.3139 34.3554C38.3709 34.0665 38.9288 31.4564 40.7659 28.8257C42.5415 26.2843 45.8483 23.2544 51.5201 23.2544C61.6805 23.2544 64.3649 30.8227 64.3649 34.8231C64.3649 37.0373 63.5371 42.6261 55.8677 46.684C52.9343 48.2357 53.3017 52.118 53.3062 52.1563C53.4787 53.8213 52.3509 55.3203 50.7868 55.5039C50.6803 55.5166 50.5753 55.523 50.4703 55.523L50.4673 55.5262Z" fill="#9834F0"/>
</svg>
