<svg width="100" height="100" viewBox="0 0 100 100" fill="none" xmlns="http://www.w3.org/2000/svg">
<path fill-rule="evenodd" clip-rule="evenodd" d="M86.4584 81.2051C86.4584 84.1629 85.2501 87.0031 83.1043 89.0968C80.9543 91.1863 78.0376 92.363 75.0001 92.363H25.0001C21.9626 92.363 19.0459 91.1863 16.8959 89.0968C14.7501 87.0031 13.5417 84.1629 13.5417 81.2051V16.2863C13.5417 13.3285 14.7501 10.4883 16.8959 8.39464C19.0459 6.30507 21.9626 5.12842 25.0001 5.12842H60.7751C62.7084 5.12842 64.5626 5.87498 65.9293 7.20988L84.3209 25.1193C85.6918 26.4502 86.4584 28.2557 86.4584 30.1384V81.2051ZM80.2084 81.2051V30.1384C80.2084 29.8706 80.1001 29.6109 79.9043 29.4202L61.5126 11.5107C61.3167 11.32 61.0501 11.2146 60.7751 11.2146H25.0001C23.6167 11.2146 22.2959 11.7501 21.3167 12.6996C20.3417 13.6531 19.7917 14.9393 19.7917 16.2863V81.2051C19.7917 82.5521 20.3417 83.8384 21.3167 84.7918C22.2959 85.7413 23.6167 86.2769 25.0001 86.2769H75.0001C76.3834 86.2769 77.7043 85.7413 78.6834 84.7918C79.6584 83.8384 80.2084 82.5521 80.2084 81.2051Z" fill="#9834F0"/>
<path fill-rule="evenodd" clip-rule="evenodd" d="M59.375 10.1988C59.375 8.51906 60.775 7.15576 62.5 7.15576C64.225 7.15576 65.625 8.51906 65.625 10.1988V24.3998C65.625 24.9597 66.0917 25.4142 66.6667 25.4142H81.25C82.975 25.4142 84.375 26.7775 84.375 28.4572C84.375 30.137 82.975 31.5003 81.25 31.5003H66.6667C62.6375 31.5003 59.375 28.3233 59.375 24.3998V10.1988Z" fill="#9834F0"/>
<path fill-rule="evenodd" clip-rule="evenodd" d="M33.3335 45.6994C31.6085 45.6994 30.2085 44.3361 30.2085 42.6563C30.2085 40.9766 31.6085 39.6133 33.3335 39.6133H66.6668C68.3918 39.6133 69.7918 40.9766 69.7918 42.6563C69.7918 44.3361 68.3918 45.6994 66.6668 45.6994H33.3335Z" fill="#9834F0"/>
<path fill-rule="evenodd" clip-rule="evenodd" d="M33.3335 59.9035C31.6085 59.9035 30.2085 58.5402 30.2085 56.8604C30.2085 55.1807 31.6085 53.8174 33.3335 53.8174H66.6668C68.3918 53.8174 69.7918 55.1807 69.7918 56.8604C69.7918 58.5402 68.3918 59.9035 66.6668 59.9035H33.3335Z" fill="#9834F0"/>
<path fill-rule="evenodd" clip-rule="evenodd" d="M33.3335 74.1018C31.6085 74.1018 30.2085 72.7385 30.2085 71.0587C30.2085 69.3789 31.6085 68.0156 33.3335 68.0156H52.0835C53.8085 68.0156 55.2085 69.3789 55.2085 71.0587C55.2085 72.7385 53.8085 74.1018 52.0835 74.1018H33.3335Z" fill="#9834F0"/>
</svg>
