<svg width="38" height="38" viewBox="0 0 38 38" fill="none" xmlns="http://www.w3.org/2000/svg">
<g clip-path="url(#clip0_53_126)">
<path d="M35.6451 7.07543H22.5768C22.5588 7.07543 22.5428 7.06586 22.5353 7.0505L21.1875 4.31658C20.8071 3.54279 20.004 3.04297 19.1412 3.04297H11.241C9.98331 3.04297 8.96019 4.06638 8.96019 5.32433V7.56046H6.72319C5.46582 7.56046 4.4427 8.58358 4.4427 9.84125V12.0774H2.20656C0.9489 12.0774 -0.0742188 13.1005 -0.0742188 14.3582V32.8143C-0.0742188 34.072 0.9489 35.0951 2.20656 35.0951H26.611C27.8686 35.0951 28.8917 34.072 28.8917 32.8143V30.5779H31.1282C32.3858 30.5779 33.4089 29.5548 33.4089 28.2974V26.0613H35.6451C36.9027 26.0613 37.9259 25.0381 37.9259 23.7805V9.35679C37.9259 8.09884 36.9027 7.07543 35.6451 7.07543ZM26.611 32.8598H2.20656C2.18163 32.8598 2.16105 32.8395 2.16105 32.8143V14.3582C2.16105 14.3329 2.18163 14.3126 2.20656 14.3126H10.1074C10.1149 14.3126 10.1222 14.3153 10.1286 14.3187C10.1294 14.3193 10.1306 14.319 10.1315 14.3196C10.1341 14.3213 10.1355 14.3245 10.1378 14.3266C10.1416 14.3303 10.146 14.3335 10.1483 14.3382L11.4967 17.0729C11.8837 17.8575 12.6677 18.3451 13.5423 18.3451H26.611C26.617 18.3451 26.6231 18.3463 26.6286 18.3486C26.6449 18.3555 26.6562 18.3718 26.6562 18.3906C26.6562 26.2729 26.6565 32.7424 26.6565 32.8143C26.6565 32.8395 26.6362 32.8598 26.611 32.8598ZM31.1737 28.2974C31.1737 28.3223 31.1534 28.3426 31.1285 28.3426H28.8917V18.3906C28.8917 17.1327 27.8683 16.1096 26.6107 16.1096H13.5423C13.5255 16.1096 13.5093 16.0994 13.5018 16.084L12.1531 13.3492C11.7663 12.5656 10.9827 12.0774 10.1077 12.0774H6.67796V9.84125C6.67796 9.81602 6.69826 9.79573 6.72319 9.79573H14.6243C14.6417 9.79573 14.6574 9.8053 14.6652 9.82153L16.0139 12.5563C16.4012 13.3408 17.1849 13.8282 18.0593 13.8282H31.1285C31.1534 13.8282 31.1737 13.8485 31.1737 13.8737V28.2974ZM35.6906 23.7805C35.6906 23.8057 35.6703 23.826 35.6451 23.826H33.4089V13.8737C33.4089 12.616 32.3861 11.5929 31.1285 11.5929H18.0593C18.0422 11.5929 18.0262 11.5828 18.0184 11.5671L16.67 8.8332C16.2835 8.04811 15.4996 7.56046 14.6243 7.56046H11.1955V5.32433C11.1955 5.29882 11.2158 5.27823 11.2407 5.27823H19.1409C19.158 5.27823 19.174 5.2878 19.1818 5.30375L20.5305 8.03941C20.9176 8.82334 21.7015 9.3107 22.5768 9.3107H35.6451C35.67 9.3107 35.6903 9.33128 35.6903 9.35708V23.7805H35.6906Z" fill="#4A6375"/>
<path d="M19.7871 28C19.1698 28 18.6694 28.5004 18.6694 29.1176V29.7639C18.6694 30.3811 19.1698 30.8815 19.7871 30.8815C20.4043 30.8815 20.9047 30.3811 20.9047 29.7639V29.1176C20.9047 28.5004 20.4043 28 19.7871 28Z" fill="#4A6375"/>
<path d="M23.0439 28C22.4267 28 21.9263 28.5004 21.9263 29.1176V29.7639C21.9263 30.3811 22.4267 30.8815 23.0439 30.8815C23.6611 30.8815 24.1615 30.3811 24.1615 29.7639V29.1176C24.1615 28.5004 23.6611 28 23.0439 28Z" fill="#4A6375"/>
</g>
<defs>
<clipPath id="clip0_53_126">
<rect width="38" height="38" fill="white"/>
</clipPath>
</defs>
</svg>
