<svg width="100" height="100" viewBox="0 0 100 100" fill="none" xmlns="http://www.w3.org/2000/svg">
<path fill-rule="evenodd" clip-rule="evenodd" d="M29.8244 19.7911C22.1537 19.7911 15.9354 25.1321 15.9354 31.7207V68.427C15.9354 75.0156 22.1537 80.3566 29.8244 80.3566H72.5592C80.23 80.3566 86.4482 75.0156 86.4482 68.427V31.7207C86.4482 25.1321 80.23 19.7911 72.5592 19.7911H29.8244ZM9.52515 31.7207C9.52515 22.0913 18.6134 14.2852 29.8244 14.2852H72.5592C83.7703 14.2852 92.8585 22.0913 92.8585 31.7207V68.427C92.8585 78.0564 83.7703 85.8625 72.5592 85.8625H29.8244C18.6134 85.8625 9.52515 78.0564 9.52515 68.427V31.7207Z" fill="#4A6375"/>
<path fill-rule="evenodd" clip-rule="evenodd" d="M51.193 53.7851L14.1649 37.8828L11.2981 42.8076L49.7597 59.3254C50.662 59.7128 51.724 59.7128 52.6263 59.3254L91.0879 42.8076L88.2212 37.8828L51.193 53.7851Z" fill="#4A6375"/>
</svg>
