<svg width="100" height="103" viewBox="0 0 100 103" fill="none" xmlns="http://www.w3.org/2000/svg">
<path fill-rule="evenodd" clip-rule="evenodd" d="M81.6076 37.5928C80.2122 30.0451 76.6793 22.8308 71.016 16.9908C55.9801 1.48681 31.6009 1.48681 16.5653 16.9908C11.9786 21.7203 7.92789 28.7213 6.15639 36.4939C4.37414 44.3135 4.86827 53.0972 9.68206 61.0846C9.92852 61.4935 10.081 61.7467 10.1887 61.9364C10.2383 62.0239 10.2645 62.0737 10.2755 62.0951C10.2855 62.1226 10.2917 62.1415 10.2953 62.1535C10.2953 62.1677 10.2947 62.1917 10.2924 62.2282C10.2894 62.2449 10.2825 62.2822 10.2685 62.3457C10.2329 62.5084 10.1787 62.7255 10.0823 63.1091L10.0543 63.2207C9.50139 65.4198 9.04697 67.2277 8.77985 68.6883C8.51097 70.1584 8.35543 71.6423 8.64143 73.0914C9.45693 77.2236 12.5895 80.4561 16.6018 81.298C18.0094 81.5932 19.4504 81.4327 20.8766 81.1551C22.2935 80.8796 24.0469 80.411 26.1797 79.8412L26.2878 79.812C26.6599 79.7129 26.8705 79.6567 27.0279 79.6202C27.0892 79.6056 27.125 79.5987 27.1415 79.5957C27.1741 79.5932 27.1965 79.5927 27.2104 79.5923C27.2219 79.5962 27.2393 79.6026 27.2636 79.6116C27.2846 79.6232 27.3334 79.6502 27.4191 79.7017C27.6045 79.8133 27.8526 79.9708 28.2518 80.2252C30.8348 81.8713 33.5232 83.0217 36.2466 83.7503C37.2568 85.1994 38.393 86.5828 39.6543 87.883C43.3706 91.7154 49.0464 95.1928 55.3689 96.7526C61.7351 98.3227 68.9889 97.994 75.5522 93.8115C75.8701 93.6086 76.0647 93.485 76.2081 93.3983C76.3226 93.4266 76.4801 93.4682 76.7406 93.5378L76.846 93.5661C78.5885 94.0317 80.0481 94.4217 81.2335 94.6526C82.4276 94.8847 83.7001 95.0341 84.966 94.7684C88.4876 94.0295 91.2364 91.1923 91.9522 87.5668C92.2093 86.2636 92.0647 84.9535 91.8397 83.7224C91.616 82.5003 91.2381 80.9959 90.786 79.1988L90.7589 79.0907C90.6906 78.8186 90.6501 78.656 90.6226 78.5376C90.7064 78.3908 90.826 78.1921 91.0231 77.8647C95.0801 71.1334 95.4889 63.7386 93.9951 57.1845C92.5118 50.6775 89.1239 44.819 85.2764 40.8516C84.1168 39.6563 82.8901 38.5698 81.6076 37.5928ZM66.5935 21.5393C53.9993 8.55272 33.5817 8.55272 20.9875 21.5393C17.1959 25.4489 13.7387 31.3936 12.241 37.9647C10.7541 44.4885 11.2295 51.4465 14.9923 57.6899C15.028 57.7492 15.0641 57.8088 15.1004 57.8689C15.4592 58.4619 15.8456 59.1008 16.0696 59.6806C16.467 60.7096 16.6045 61.6407 16.5224 62.7448C16.4762 63.3653 16.3143 64.0047 16.1721 64.5668C16.1588 64.6191 16.1456 64.671 16.1328 64.7221C15.5451 67.0603 15.1454 68.6574 14.9219 69.8795C14.6957 71.1166 14.726 71.6058 14.7662 71.8096C15.083 73.4145 16.2985 74.6653 17.8498 74.991C18.045 75.0318 18.5178 75.0635 19.717 74.8305C20.9017 74.6001 22.4501 74.1882 24.7178 73.5818C24.7675 73.5685 24.8179 73.5552 24.869 73.5415C25.4132 73.3947 26.0337 73.2278 26.6345 73.1802C27.7055 73.0948 28.6038 73.2347 29.6023 73.6423C30.1642 73.8719 30.7865 74.2697 31.3651 74.64C31.4241 74.6778 31.4825 74.7151 31.5404 74.752C31.6543 74.8245 31.7684 74.8958 31.8828 74.9657C28.1151 63.3803 30.7033 50.0815 39.6543 40.8516C48.9306 31.2863 62.4481 28.7656 73.9622 33.2853C72.3943 29.0034 69.9389 24.9885 66.5935 21.5393ZM76.9972 42.1165C66.8843 35.0732 53.0276 36.1704 44.0764 45.4C35.1991 54.5541 34.0769 68.687 40.7222 79.0954C41.6781 80.5921 42.7956 82.0137 44.0764 83.3345C46.9781 86.3267 51.6281 89.2111 56.8247 90.4928C61.9776 91.7638 67.4364 91.4137 72.2635 88.3379C72.3114 88.3074 72.3606 88.2761 72.411 88.2439C72.8756 87.9461 73.4339 87.5887 73.9464 87.3793C74.8468 87.0115 75.6706 86.8832 76.6364 86.96C77.1839 87.0038 77.7447 87.1553 78.1835 87.2737C78.2272 87.2853 78.2697 87.2969 78.3106 87.3076C80.186 87.8088 81.4397 88.1422 82.3926 88.3276C83.3606 88.5155 83.6643 88.4726 83.7181 88.4615C84.7785 88.2388 85.6106 87.3835 85.8272 86.2846C85.8385 86.2267 85.8801 85.9117 85.6976 84.9136C85.5176 83.9301 85.1943 82.6368 84.7085 80.7037C84.6976 80.6612 84.6864 80.6174 84.6751 80.5724C84.5601 80.1197 84.4135 79.5412 84.3714 78.9761C84.2976 77.9806 84.4235 77.1271 84.7818 76.1994C84.986 75.6707 85.3335 75.0974 85.6218 74.6211C85.6531 74.5696 85.6835 74.5194 85.7131 74.4705C88.7189 69.4826 89.1089 63.9137 87.9106 58.6554C86.701 53.35 83.9064 48.5474 80.8539 45.4C79.6481 44.1564 78.3556 43.0626 76.9972 42.1165Z" fill="#4A6375"/>
<path d="M54.1661 64.3648C54.1661 66.7347 52.3007 68.6558 49.9994 68.6558C47.6982 68.6558 45.8328 66.7347 45.8328 64.3648C45.8328 61.9948 47.6982 60.0737 49.9994 60.0737C52.3007 60.0737 54.1661 61.9948 54.1661 64.3648Z" fill="#4A6375"/>
<path d="M66.6661 64.3648C66.6661 66.7347 64.8007 68.6558 62.4994 68.6558C60.1982 68.6558 58.3328 66.7347 58.3328 64.3648C58.3328 61.9948 60.1982 60.0737 62.4994 60.0737C64.8007 60.0737 66.6661 61.9948 66.6661 64.3648Z" fill="#4A6375"/>
<path d="M79.1661 64.3648C79.1661 66.7347 77.3007 68.6558 74.9994 68.6558C72.6982 68.6558 70.8328 66.7347 70.8328 64.3648C70.8328 61.9948 72.6982 60.0737 74.9994 60.0737C77.3007 60.0737 79.1661 61.9948 79.1661 64.3648Z" fill="#4A6375"/>
</svg>
