<svg width="33" height="33" viewBox="0 0 33 33" fill="none" xmlns="http://www.w3.org/2000/svg">
  <g transform="translate(4,0)" clip-path="url(#clip0_1_582)">
    <path d="M32.4343 12.0416L30.8203 10.4277C30.0664 9.67371 28.8397 9.67383 28.0857 10.4277L24.6862 13.8273V2.90039C24.6862 1.30112 23.385 0 21.7858 0H2.901C1.30173 0 0.000610352 1.30112 0.000610352 2.90039V30.0996C0.000610352 31.6989 1.30173 33 2.901 33H21.7858C23.385 33 24.6862 31.6989 24.6862 30.0996V22.4276L32.4343 14.7762C33.1882 14.0223 33.1882 12.7956 32.4343 12.0416ZM20.8714 23.4771L17.9632 24.8344L19.3191 21.929L26.5362 14.7118L28.1319 16.3074L20.8714 23.4771ZM22.7526 30.0996C22.7526 30.6327 22.3189 31.0664 21.7858 31.0664H2.901C2.36791 31.0664 1.9342 30.6327 1.9342 30.0996V2.90039C1.9342 2.3673 2.36791 1.93359 2.901 1.93359H21.7858C22.3189 1.93359 22.7526 2.3673 22.7526 2.90039V15.7609C17.3914 21.122 17.7415 20.7368 17.6389 20.9568L15.0866 26.4259C14.9147 26.7944 14.9916 27.2309 15.2791 27.5184C15.5666 27.8059 16.0033 27.8827 16.3716 27.7108L21.8407 25.1586C22.0412 25.065 22.0742 25.0068 22.7526 24.3369V30.0996ZM29.5076 14.9488L27.9034 13.3446L29.453 11.7949L31.0665 13.4094L29.5076 14.9488Z" fill="#4F6273"/>
    <path d="M5.15674 8.18555H19.5942C20.1282 8.18555 20.561 7.75268 20.561 7.21875C20.561 6.68482 20.1282 6.25195 19.5942 6.25195H5.15674C4.62281 6.25195 4.18994 6.68482 4.18994 7.21875C4.18994 7.75268 4.62281 8.18555 5.15674 8.18555Z" fill="#4F6273"/>
    <path d="M5.15674 13.3418H16.5005C17.0344 13.3418 17.4673 12.9089 17.4673 12.375C17.4673 11.8411 17.0344 11.4082 16.5005 11.4082H5.15674C4.62281 11.4082 4.18994 11.8411 4.18994 12.375C4.18994 12.9089 4.62281 13.3418 5.15674 13.3418Z" fill="#4F6273"/>
    <path d="M13.4067 16.5645H5.15674C4.62281 16.5645 4.18994 16.9973 4.18994 17.5312C4.18994 18.0652 4.62281 18.498 5.15674 18.498H13.4067C13.9407 18.498 14.3735 18.0652 14.3735 17.5312C14.3735 16.9973 13.9407 16.5645 13.4067 16.5645Z" fill="#4F6273"/>
  </g>
  <defs>
    <clipPath id="clip0_1_582">
      <rect width="33" height="33" fill="white"/>
    </clipPath>
  </defs>
</svg>
