<svg width="100" height="98" viewBox="0 0 100 98" fill="none" xmlns="http://www.w3.org/2000/svg">
<path d="M46.2731 3.98558C45.0385 3.98933 43.6731 4.52925 42.4269 5.7403L20.4308 29.9951H3.84615C1.72692 29.9951 0 31.6786 0 33.7445V63.7397C0 65.8056 1.72692 67.4891 3.84615 67.4891H20.4346L42.3077 91.6277C46.1538 95.3771 50 93.4574 50 88.347V8.5486C50 5.58283 48.3346 3.96684 46.2731 3.97809V3.98558ZM74.1577 11.4844C73.3397 11.6235 72.5898 12.0169 72.0202 12.6059C71.4506 13.1949 71.0918 13.9477 70.9974 14.7519C70.9031 15.5561 71.0782 16.3685 71.4967 17.0677C71.9152 17.7668 72.5546 18.3152 73.3192 18.6307C79.0411 21.435 83.8485 25.7376 87.2024 31.0562C90.5563 36.3748 92.3242 42.499 92.3077 48.7421C92.3077 61.955 84.6154 73.3007 73.3154 78.8535C72.8012 79.0279 72.3308 79.3068 71.9354 79.6717C71.5399 80.0365 71.2285 80.4791 71.0216 80.97C70.8147 81.461 70.7171 81.9892 70.7353 82.5197C70.7534 83.0501 70.8869 83.5708 71.1269 84.0472C71.3669 84.5237 71.7079 84.945 72.1274 85.2834C72.5468 85.6217 73.0352 85.8694 73.5602 86.0101C74.0852 86.1507 74.6349 86.1811 75.1728 86.0992C75.7108 86.0172 76.2248 85.8249 76.6808 85.5349C90.5 78.7373 100 64.8195 100 48.7421C100 32.6647 90.4962 18.747 76.6808 11.9493C76.0226 11.5912 75.2709 11.4295 74.5192 11.4844C74.3988 11.4789 74.2781 11.4789 74.1577 11.4844ZM65.0231 26.0095C64.1949 26.0688 63.4087 26.3878 62.7819 26.9188C62.1551 27.4497 61.7214 28.1642 61.5457 28.9554C61.37 29.7465 61.4616 30.5719 61.8069 31.3081C62.1523 32.0442 62.7327 32.6517 63.4615 33.0396C69.3962 36.6353 73.0769 42.3306 73.0769 48.7421C73.0769 55.1986 69.3385 60.9689 63.3423 64.5608C62.8712 64.8004 62.4562 65.1325 62.1234 65.5362C61.7905 65.9399 61.5471 66.4065 61.4084 66.9065C61.2697 67.4065 61.2388 67.929 61.3177 68.4413C61.3965 68.9535 61.5833 69.4442 61.8663 69.8825C62.1494 70.3208 62.5225 70.6973 62.9623 70.988C63.402 71.2787 63.8987 71.4775 64.4211 71.5718C64.9436 71.6661 65.4804 71.6538 65.9977 71.5358C66.515 71.4178 67.0017 71.1965 67.4269 70.886C75.3885 66.1243 80.7692 58.0256 80.7692 48.7421C80.7692 39.5149 75.4346 31.3712 67.5462 26.5982C66.9017 26.1968 66.1491 25.9919 65.3846 26.0095C65.2642 26.004 65.1435 26.004 65.0231 26.0095Z" fill="white"/>
</svg>
