<svg width="189" height="179" viewBox="0 0 189 179" fill="none" xmlns="http://www.w3.org/2000/svg">
<path d="M29.2578 73.5388L40.8756 79.8528" stroke="#00ABBF" stroke-width="4.24781" stroke-miterlimit="10" stroke-linecap="round"/>
<path d="M26.7888 124.61L39.8988 122.888" stroke="white" stroke-width="2.54868" stroke-miterlimit="10" stroke-linecap="round"/>
<path d="M182.993 73.5388L171.375 79.8528" stroke="white" stroke-width="2.54868" stroke-miterlimit="10" stroke-linecap="round"/>
<path d="M186.865 115.483L173.645 115.251" stroke="#4DCFE1" stroke-width="3.39824" stroke-miterlimit="10" stroke-linecap="round"/>
<path d="M116.143 163.405L117.744 176.681" stroke="white" stroke-width="3.39824" stroke-miterlimit="10" stroke-linecap="round"/>
<path d="M62.2045 161.106L56.6934 167.801" stroke="white" stroke-width="2.54868" stroke-miterlimit="10" stroke-linecap="round"/>
<path d="M159.808 156.101L165.319 162.796" stroke="#00ABBF" stroke-width="2.54868" stroke-miterlimit="10" stroke-linecap="round"/>
<path d="M106.327 66.6156H89.3441C89.3441 63.4627 90.9689 62.3887 89.2536 60.6735C87.5384 58.9582 90.7845 57.2349 89.2536 55.7041C87.7228 54.1733 90.5902 52.3303 89.2536 50.7348C88.0788 49.3323 89.4217 48.9224 89.4217 47.1413C89.4217 45.3602 90.5708 43.4887 94.1904 42.512H106.327V66.6156Z" fill="#546E7A"/>
<path d="M123.404 57.049C121.873 58.5798 125.119 60.303 123.404 62.0183C121.689 63.7335 123.314 63.4627 123.314 66.6156H106.328V42.512H118.467C122.087 43.4887 123.236 45.9018 123.236 47.6828C123.236 49.4639 124.513 50.9708 123.404 52.0797C121.932 53.5515 124.935 55.5181 123.404 57.049Z" fill="#455A64"/>
<path d="M106.328 32.9553C107.794 32.9552 109.259 37.6819 110.692 38.0332L113.965 38.8353C115.079 39.1084 116.079 39.7238 116.825 40.595L118.467 42.512H106.328V32.9553Z" fill="#263238"/>
<path d="M94.1914 42.512L95.8334 40.595C96.5795 39.7238 97.5801 39.1084 98.6942 38.8353L101.967 38.0332C103.4 37.6821 104.864 32.9554 106.328 32.9553V42.512H94.1914Z" fill="#37474F"/>
<path d="M82.8803 130.112C72.3263 119.558 70.3766 103.661 77.0256 91.1298C78.5349 88.2853 80.4846 85.6131 82.8803 83.2174C87.0949 79.0027 89.4822 71.8627 89.3441 66.6157H106.328V139.811C97.8416 139.815 89.3557 136.587 82.8803 130.112Z" fill="#FDE16D"/>
<path d="M129.773 130.112C127.982 131.904 126.032 133.438 123.975 134.734C118.599 138.121 112.463 139.809 106.326 139.811V66.6157H123.31C123.172 71.8627 125.559 79.0027 129.773 83.2174C142.723 96.167 142.723 117.162 129.773 130.112Z" fill="#FDD735"/>
<g style="mix-blend-mode:overlay" opacity="0.42">
<path d="M122.398 59.7857L90.4667 58.4433C89.8848 58.4189 89.3887 58.8749 89.3642 59.4568C89.3398 60.0387 89.7958 60.5348 90.3777 60.5592L122.309 61.9016C122.891 61.9261 123.387 61.4701 123.411 60.8881C123.436 60.3063 122.98 59.8102 122.398 59.7857Z" fill="white"/>
</g>
<g style="mix-blend-mode:overlay" opacity="0.42">
<path d="M122.398 54.9161L90.4667 53.5737C89.8848 53.5492 89.3887 54.0053 89.3642 54.5872C89.3398 55.1691 89.7958 55.6652 90.3777 55.6896L122.309 57.032C122.891 57.0565 123.387 56.6004 123.411 56.0186C123.436 55.4367 122.98 54.9405 122.398 54.9161Z" fill="white"/>
</g>
<g style="mix-blend-mode:overlay" opacity="0.42">
<path d="M122.398 49.8682L90.4667 48.5258C89.8848 48.5014 89.3887 48.9574 89.3642 49.5393C89.3398 50.1212 89.7958 50.6173 90.3777 50.6418L122.309 51.9841C122.891 52.0086 123.387 51.5526 123.411 50.9707C123.436 50.3888 122.98 49.8927 122.398 49.8682Z" fill="white"/>
</g>
<path d="M70.3174 84.3325C60.368 100.539 62.4117 122.027 76.4485 136.064C92.8771 152.493 119.513 152.493 135.942 136.064C151.187 120.819 152.285 96.7828 139.236 80.2712" stroke="white" stroke-width="4.24781" stroke-miterlimit="10" stroke-linecap="round"/>
<path d="M106.33 35.5271V0H104.943V38.9884L106.33 35.5271Z" fill="#37474F"/>
<path d="M106.33 35.5271V0H107.717V38.9884L106.33 35.5271Z" fill="#263238"/>
<path d="M107.814 22.2058H105.91V34.1231H107.814C108.161 34.1231 108.442 33.8418 108.442 33.4949V22.834C108.442 22.4871 108.161 22.2058 107.814 22.2058Z" fill="#1A2226"/>
<path d="M104.154 22.834V33.4949C104.154 33.8418 104.436 34.1231 104.783 34.1231H105.91V22.2058H104.783C104.436 22.2058 104.154 22.4871 104.154 22.834Z" fill="#28353B"/>
<path d="M160.402 49.8567L147.331 48.3284L144.682 70.9868L162.041 73.0164L164.189 54.6459L160.402 49.8567Z" fill="#DFF7F9"/>
<path d="M163.096 47.7275L150.024 46.1992L147.375 68.8576L164.734 70.8873L166.882 52.5168L163.096 47.7275Z" fill="#B1EAF1"/>
<path d="M165.969 45.457L152.897 43.9287L150.248 66.5871L167.607 68.6167L169.755 50.2463L165.969 45.457Z" fill="#25C5D9"/>
<path d="M166.973 51.1857L158.838 50.2346L158.71 51.3314L166.844 52.2825L166.973 51.1857Z" fill="#00ABBF"/>
<path d="M166.707 53.4562L154.648 52.0464L154.52 53.1432L166.579 54.553L166.707 53.4562Z" fill="#00ABBF"/>
<path d="M166.441 55.7267L154.383 54.3169L154.255 55.4137L166.313 56.8236L166.441 55.7267Z" fill="#00ABBF"/>
<path d="M166.176 57.9972L154.117 56.5874L153.989 57.6842L166.047 59.0941L166.176 57.9972Z" fill="#00ABBF"/>
<path d="M165.912 60.2678L153.854 58.8579L153.725 59.9547L165.784 61.3646L165.912 60.2678Z" fill="#00ABBF"/>
<path d="M161.579 62.0625L153.588 61.1282L153.46 62.225L161.451 63.1593L161.579 62.0625Z" fill="#00ABBF"/>
<path d="M165.968 45.457L164.445 48.7068L169.755 50.2463L165.968 45.457Z" fill="#B1EAF1"/>
<path d="M54.6506 128.782L43.6191 130.736L47.0057 149.858L61.656 147.264L58.9103 131.76L54.6506 128.782Z" fill="#4DCFE1"/>
<path d="M56.8711 133.207L50.0059 134.423L50.1698 135.348L57.035 134.133L56.8711 133.207Z" fill="#00ABBF"/>
<path d="M57.2118 135.123L47.0352 136.925L47.1991 137.851L57.3757 136.049L57.2118 135.123Z" fill="#00ABBF"/>
<path d="M57.5516 137.039L47.375 138.842L47.5389 139.767L57.7155 137.965L57.5516 137.039Z" fill="#00ABBF"/>
<path d="M57.8895 138.956L47.7129 140.758L47.8768 141.683L58.0535 139.881L57.8895 138.956Z" fill="#00ABBF"/>
<path d="M58.2313 140.872L48.0547 142.674L48.2186 143.599L58.3953 141.797L58.2313 140.872Z" fill="#00ABBF"/>
<path d="M55.1368 143.396L48.3928 144.59L48.5568 145.516L55.3008 144.321L55.1368 143.396Z" fill="#00ABBF"/>
<path d="M54.6514 128.782L54.2051 131.805L58.911 131.76L54.6514 128.782Z" fill="#B1EAF1"/>
<path d="M160.048 129.855L137.393 153.076L139.098 154.74L161.753 131.518L160.048 129.855Z" fill="#F57F17"/>
<path d="M155.255 125.18L132.6 148.401L134.476 150.232L157.131 127.01L155.255 125.18Z" fill="#FBBF2C"/>
<path d="M157.13 127.01L134.475 150.232L137.391 153.076L160.046 129.855L157.13 127.01Z" fill="#F8A725"/>
<path d="M133.343 152.009L129.446 158.132L135.603 154.214L133.343 152.009Z" fill="#1A1A1A"/>
<path d="M131.889 150.591L129.446 158.133L133.343 152.009L131.889 150.591Z" fill="#333333"/>
<path d="M129.446 158.132L136.925 155.503L135.603 154.214L129.446 158.132Z" fill="black"/>
<path d="M135.604 154.214L137.391 153.076L134.475 150.232L133.344 152.009L135.604 154.214Z" fill="#FEDFB1"/>
<path d="M137.391 153.076L135.604 154.214L136.925 155.503L139.096 154.74L137.391 153.076Z" fill="#FECB80"/>
<path d="M134.475 150.232L132.598 148.401L131.889 150.591L133.343 152.009L134.475 150.232Z" fill="#FEF2DF"/>
<path d="M152.629 127.484L155.402 124.643L155.595 124.83L158.844 128.001L158.504 128.35L156.072 130.843L152.629 127.484Z" fill="#CED7DB"/>
<path d="M156.073 130.843L158.504 128.35L158.845 128.001L162.093 131.169L162.277 131.349L159.504 134.191L156.073 130.843Z" fill="#AFBDC4"/>
<path d="M163.992 122.726L163.991 122.725C162.197 120.974 159.323 121.01 157.573 122.804L156.176 124.235L155.596 124.83L158.846 128.001L162.093 131.169L162.674 130.574L164.07 129.143C165.82 127.349 165.785 124.476 163.992 122.726Z" fill="white"/>
<g style="mix-blend-mode:multiply" opacity="0.53">
<path d="M155.596 124.83L162.093 131.169L162.668 130.58L155.596 124.83Z" fill="#CEE3F5"/>
</g>
<path d="M65.247 52.3589L61.3457 73.0249L62.8633 73.3114L66.7646 52.6454L65.247 52.3589Z" fill="#C52827"/>
<path d="M60.9833 51.5539L57.082 72.22L58.7517 72.5352L62.6529 51.8691L60.9833 51.5539Z" fill="#ED534F"/>
<path d="M62.6532 51.8691L58.752 72.5352L61.3469 73.025L65.2482 52.359L62.6532 51.8691Z" fill="#E43935"/>
<path d="M63.1758 50.6072L64.9768 46.2603L65.1869 50.9869L63.1758 50.6072Z" fill="#1A1A1A"/>
<path d="M61.8806 50.363L64.9756 46.2603L63.1746 50.6072L61.8806 50.363Z" fill="#333333"/>
<path d="M64.9746 46.2603L66.3609 51.2089L65.1847 50.9869L64.9746 46.2603Z" fill="black"/>
<path d="M65.1863 50.9871L65.2473 52.3593L62.6523 51.8694L63.1752 50.6074L65.1863 50.9871Z" fill="#FEDFB1"/>
<path d="M65.2465 52.359L65.1855 50.9868L66.3618 51.2088L66.7642 52.6455L65.2465 52.359Z" fill="#FECB80"/>
<path d="M62.6521 51.8693L60.9824 51.5541L61.8809 50.363L63.1749 50.6073L62.6521 51.8693Z" fill="#FEF2DF"/>
<path d="M57.329 69.9697L56.8516 72.4988L57.023 72.5312L59.9152 73.0772L59.9739 72.7663L60.3927 70.5481L57.329 69.9697Z" fill="#CED7DB"/>
<path d="M60.3915 70.5481L59.9728 72.7663L59.9141 73.0772L62.8041 73.6228L62.9679 73.6537L63.4453 71.1246L60.3915 70.5481Z" fill="#AFBDC4"/>
<path d="M59.0309 77.7716C59.0305 77.7716 59.0301 77.7716 59.0298 77.7715C57.4331 77.4701 56.383 75.9313 56.6844 74.3346L56.9249 73.0607L57.0249 72.531L59.9171 73.077L62.8072 73.6226L62.7071 74.1523L62.4666 75.4261C62.1653 77.0225 60.6272 78.0723 59.0309 77.7716Z" fill="white"/>
<g style="mix-blend-mode:multiply" opacity="0.53">
<path d="M57.0254 72.531L62.8077 73.6226L62.7087 74.1467L57.0254 72.531Z" fill="#CEE3F5"/>
</g>
<path d="M167.952 103.288C165.552 103.288 163.672 99.476 163.672 94.6092C163.672 89.7425 165.552 85.9302 167.952 85.9302C170.352 85.9302 172.232 89.7425 172.232 94.6092C172.232 99.476 170.352 103.288 167.952 103.288ZM167.952 86.4987C165.94 86.4987 164.24 90.2128 164.24 94.6092C164.24 99.0057 165.94 102.72 167.952 102.72C169.964 102.72 171.664 99.0057 171.664 94.6092C171.664 90.2128 169.964 86.4987 167.952 86.4987Z" fill="#DFF7F9"/>
<path d="M163.574 100.854C162.44 100.854 161.529 100.512 160.996 99.7974C159.562 97.8732 161.494 94.0871 165.396 91.178C167.226 89.8128 169.205 88.8679 170.968 88.517C172.804 88.1518 174.204 88.4728 174.912 89.4211C175.619 90.3696 175.527 91.8035 174.653 93.4587C173.814 95.0482 172.344 96.6754 170.513 98.0406C168.059 99.8701 165.496 100.854 163.574 100.854ZM172.358 88.937C171.969 88.937 171.541 88.9825 171.079 89.0744C169.398 89.4091 167.5 90.3181 165.735 91.6337C162.211 94.2617 160.249 97.8446 161.452 99.4575C162.655 101.071 166.649 100.213 170.173 97.585C171.937 96.2692 173.35 94.7096 174.15 93.1933C174.916 91.7428 175.025 90.5238 174.456 89.761C174.051 89.2171 173.325 88.937 172.358 88.937Z" fill="#DFF7F9"/>
<path d="M172.358 100.591C172.031 100.591 171.684 100.566 171.318 100.515C169.537 100.268 167.506 99.44 165.599 98.1839C163.692 96.928 162.129 95.3894 161.198 93.8517C160.229 92.2503 160.054 90.8242 160.705 89.8361C162.024 87.8315 166.243 88.358 170.307 91.0346C172.214 92.2905 173.777 93.8291 174.708 95.3669C175.677 96.9682 175.852 98.3944 175.202 99.3824C174.679 100.175 173.688 100.591 172.358 100.591ZM163.536 89.2031C162.447 89.2031 161.601 89.5089 161.179 90.1487C160.656 90.9435 160.835 92.1541 161.685 93.5574C162.572 95.0243 164.073 96.4988 165.912 97.7093C167.75 98.9197 169.697 99.7163 171.396 99.9522C173.021 100.178 174.204 99.8646 174.727 99.0698C175.25 98.2751 175.071 97.0645 174.222 95.6612C173.334 94.1942 171.833 92.7197 169.994 91.5092C167.721 90.0121 165.307 89.2031 163.536 89.2031Z" fill="#DFF7F9"/>
<path d="M170.51 92.2831C170.926 92.2831 171.263 91.9456 171.263 91.5294C171.263 91.1131 170.926 90.7756 170.51 90.7756C170.093 90.7756 169.756 91.1131 169.756 91.5294C169.756 91.9456 170.093 92.2831 170.51 92.2831Z" fill="#DFF7F9"/>
<path d="M167.206 102.126C167.206 101.563 166.749 101.106 166.186 101.106C165.623 101.106 165.166 101.563 165.166 102.126C165.166 102.689 165.623 103.146 166.186 103.146C166.749 103.146 167.206 102.689 167.206 102.126Z" fill="#DFF7F9"/>
<path d="M161.242 97.2267C161.658 97.2267 161.996 96.8892 161.996 96.473C161.996 96.0567 161.658 95.7192 161.242 95.7192C160.826 95.7192 160.488 96.0567 160.488 96.473C160.488 96.8892 160.826 97.2267 161.242 97.2267Z" fill="#DFF7F9"/>
<path d="M96.6676 159.149H83.5316C83.312 159.149 83.1339 158.971 83.1339 158.752C83.1339 158.532 83.312 158.354 83.5316 158.354H85.5677C86.5269 158.354 87.3877 157.658 87.4842 156.703C87.5949 155.608 86.7283 154.675 85.6544 154.675L76.7308 154.675C75.7716 154.675 74.9107 155.372 74.8142 156.326C74.7035 157.421 75.5702 158.354 76.6441 158.354H81.2194C81.439 158.354 81.6171 158.532 81.6171 158.752C81.6171 158.971 81.439 159.149 81.2194 159.149H79.6141C78.6549 159.149 77.794 159.846 77.6976 160.8C77.5869 161.895 78.4535 162.828 79.5273 162.828H96.7543C97.8282 162.828 98.6948 161.895 98.5841 160.8C98.4876 159.846 97.6268 159.149 96.6676 159.149Z" fill="#4DCFE1"/>
<path d="M45.3534 106.487H43.7927V114.29H45.3534V106.487Z" fill="#4DCFE1"/>
<path d="M50.5986 101.238C51.5408 99.8671 50.753 98.0799 49.5308 97.367C48.3085 96.654 46.7401 96.7943 45.63 97.716C44.9083 96.3403 43.3823 95.5839 42.0093 95.9211C40.6363 96.2584 39.5177 97.6645 39.3553 99.2574C38.5457 99.1379 37.6964 99.7092 37.3955 100.576C37.0945 101.442 37.37 102.523 38.0312 103.069C37.1811 103.233 36.5258 104.237 36.6322 105.214C36.7386 106.191 37.5894 106.982 38.4486 106.902C38.4373 107.777 39.0491 108.608 39.8062 108.745C40.2485 108.826 40.7048 108.659 41.0557 108.343C41.234 108.658 41.4893 108.914 41.8019 109.034C42.556 109.325 43.4742 108.796 43.7166 107.93C44.2164 108.943 45.3662 109.468 46.3399 109.13C47.3135 108.791 48.0113 107.623 47.9318 106.464C49.1428 106.91 50.5754 106.411 51.3618 105.268C52.1481 104.126 51.7121 101.58 50.5986 101.238Z" fill="#B1EAF1"/>
<path d="M91.5772 170.648H90.2903V169.361C90.2903 168.927 89.9353 168.572 89.5015 168.572C89.0677 168.572 88.7127 168.927 88.7127 169.361V170.648H87.4257C86.9919 170.648 86.637 171.003 86.637 171.437C86.637 171.87 86.9919 172.225 87.4257 172.225H88.7127V173.512C88.7127 173.946 89.0677 174.301 89.5015 174.301C89.9353 174.301 90.2903 173.946 90.2903 173.512V172.225H91.5772C92.0111 172.225 92.366 171.87 92.366 171.437C92.366 171.003 92.0111 170.648 91.5772 170.648Z" fill="#4DCFE1"/>
<path d="M71.4449 173.375H70.5114V172.441C70.5114 172.126 70.254 171.869 69.9392 171.869C69.6246 171.869 69.3671 172.126 69.3671 172.441V173.375H68.4335C68.1188 173.375 67.8613 173.632 67.8613 173.947C67.8613 174.261 68.1188 174.519 68.4335 174.519H69.3671V175.452C69.3671 175.767 69.6246 176.025 69.9392 176.025C70.254 176.025 70.5114 175.767 70.5114 175.452V174.519H71.4449C71.7597 174.519 72.0171 174.261 72.0171 173.947C72.0171 173.632 71.7597 173.375 71.4449 173.375Z" fill="#B1EAF1"/>
<path d="M81.384 177.999C81.384 178.522 80.9596 178.946 80.4361 178.946C79.9126 178.946 79.4883 178.522 79.4883 177.999C79.4883 177.475 79.9126 177.051 80.4361 177.051C80.9596 177.051 81.384 177.475 81.384 177.999Z" fill="#4DCFE1"/>
<path d="M106.159 165.873C106.159 166.342 105.778 166.723 105.309 166.723C104.839 166.723 104.459 166.342 104.459 165.873C104.459 165.404 104.839 165.023 105.309 165.023C105.778 165.023 106.159 165.404 106.159 165.873Z" fill="#4DCFE1"/>
<path d="M102.434 174.502C102.434 174.971 102.053 175.351 101.584 175.351C101.115 175.351 100.734 174.971 100.734 174.502C100.734 174.032 101.115 173.652 101.584 173.652C102.053 173.652 102.434 174.032 102.434 174.502Z" stroke="#DFF7F9" stroke-width="0.42478" stroke-miterlimit="10"/>
<path d="M77.8875 167.18C78.2666 167.18 78.5739 166.873 78.5739 166.494C78.5739 166.115 78.2666 165.808 77.8875 165.808C77.5085 165.808 77.2012 166.115 77.2012 166.494C77.2012 166.873 77.5085 167.18 77.8875 167.18Z" fill="#4DCFE1"/>
<path d="M97.8562 154.401C97.8562 154.96 97.4026 155.414 96.843 155.414C96.2835 155.414 95.8298 154.96 95.8298 154.401C95.8298 153.841 96.2835 153.388 96.843 153.388C97.4026 153.388 97.8562 153.841 97.8562 154.401Z" stroke="#DFF7F9" stroke-width="0.42478" stroke-miterlimit="10"/>
<path d="M159.669 109.327C159.669 110.202 158.959 110.912 158.084 110.912C157.208 110.912 156.498 110.202 156.498 109.327C156.498 108.451 157.208 107.742 158.084 107.742C158.959 107.742 159.669 108.451 159.669 109.327Z" fill="#FEED58"/>
<path d="M153.198 83.0383C153.198 83.6219 152.724 84.0951 152.141 84.0951C151.557 84.0951 151.084 83.6219 151.084 83.0383C151.084 82.4546 151.557 81.9814 152.141 81.9814C152.724 81.9814 153.198 82.4546 153.198 83.0383Z" fill="#FEF49B"/>
<path d="M79.2176 60.6466C79.2176 61.4127 78.5965 62.0337 77.8304 62.0337C77.0644 62.0337 76.4434 61.4127 76.4434 60.6466C76.4434 59.8805 77.0644 59.2595 77.8304 59.2595C78.5965 59.2595 79.2176 59.8805 79.2176 60.6466Z" fill="#FEED58"/>
<path d="M48.6151 62.7588C49.9796 62.7588 51.0857 61.6527 51.0857 60.2882C51.0857 58.9238 49.9796 57.8176 48.6151 57.8176C47.2507 57.8176 46.1445 58.9238 46.1445 60.2882C46.1445 61.6527 47.2507 62.7588 48.6151 62.7588Z" fill="#FEF49B"/>
<path d="M53.1921 88.3222C53.9217 88.3222 54.5132 87.7308 54.5132 87.0012C54.5132 86.2716 53.9217 85.6802 53.1921 85.6802C52.4625 85.6802 51.8711 86.2716 51.8711 87.0012C51.8711 87.7308 52.4625 88.3222 53.1921 88.3222Z" fill="#FEED58"/>
<path d="M53.3256 118.904C53.3256 119.525 52.8229 120.027 52.2027 120.027C51.5826 120.027 51.0798 119.525 51.0798 118.904C51.0798 118.284 51.5826 117.781 52.2027 117.781C52.8229 117.781 53.3256 118.284 53.3256 118.904Z" fill="#FEF49B"/>
<path d="M45.5301 157.743C45.5301 158.509 44.909 159.13 44.143 159.13C43.3769 159.13 42.7559 158.509 42.7559 157.743C42.7559 156.977 43.3769 156.356 44.143 156.356C44.909 156.356 45.5301 156.977 45.5301 157.743Z" fill="#FEED58"/>
<path d="M122.152 153.846C122.152 154.357 121.738 154.771 121.227 154.771C120.717 154.771 120.303 154.357 120.303 153.846C120.303 153.335 120.717 152.921 121.227 152.921C121.738 152.921 122.152 153.335 122.152 153.846Z" fill="#FEED58"/>
<path d="M163.632 144.797C163.632 145.636 162.952 146.316 162.113 146.316C161.274 146.316 160.594 145.636 160.594 144.797C160.594 143.958 161.274 143.278 162.113 143.278C162.952 143.278 163.632 143.958 163.632 144.797Z" fill="#FEF49B"/>
<path d="M180.41 106.024C180.41 106.754 179.818 107.345 179.089 107.345C178.359 107.345 177.768 106.754 177.768 106.024C177.768 105.295 178.359 104.703 179.089 104.703C179.818 104.703 180.41 105.295 180.41 106.024Z" fill="#FEED58"/>
<path d="M79.0874 39.9099C79.0874 40.6395 78.4959 41.231 77.7663 41.231C77.0367 41.231 76.4453 40.6395 76.4453 39.9099C76.4453 39.1803 77.0367 38.5889 77.7663 38.5889C78.4959 38.5889 79.0874 39.1803 79.0874 39.9099Z" fill="#FEF49B"/>
</svg>
